<?xml version="1.0" encoding="utf-8" standalone="no"?>
<!DOCTYPE svg PUBLIC "-//W3C//DTD SVG 1.1//EN"
  "http://www.w3.org/Graphics/SVG/1.1/DTD/svg11.dtd">
<svg xmlns:xlink="http://www.w3.org/1999/xlink" width="360pt" height="360pt" viewBox="0 0 360 360" xmlns="http://www.w3.org/2000/svg" version="1.1">
 <metadata>
  <rdf:RDF xmlns:dc="http://purl.org/dc/elements/1.1/" xmlns:cc="http://creativecommons.org/ns#" xmlns:rdf="http://www.w3.org/1999/02/22-rdf-syntax-ns#">
   <cc:Work>
    <dc:type rdf:resource="http://purl.org/dc/dcmitype/StillImage"/>
    <dc:date>2024-12-29T00:32:13.038980</dc:date>
    <dc:format>image/svg+xml</dc:format>
    <dc:creator>
     <cc:Agent>
      <dc:title>Matplotlib v3.10.0, https://matplotlib.org/</dc:title>
     </cc:Agent>
    </dc:creator>
   </cc:Work>
  </rdf:RDF>
 </metadata>
 <defs>
  <style type="text/css">*{stroke-linejoin: round; stroke-linecap: butt}</style>
 </defs>
 <g id="figure_1">
  <g id="patch_1">
   <path d="M 0 360 
L 360 360 
L 360 0 
L 0 0 
z
" style="fill: #ffffff"/>
  </g>
  <g id="axes_1">
   <g id="patch_2">
    <path d="M 106.152644 319.239199 
L 104.183381 318.953061 
L 101.932795 318.147729 
L 100.21424 316.985064 
L 98.232809 314.734283 
L 97.578797 313.608892 
L 97.244074 312.911924 
L 96.674901 311.483154 
L 95.710071 307.231678 
L 95.485043 299.979159 
L 95.649909 293.455859 
L 95.622818 293.476902 
L 94.243293 293.89723 
L 93.493097 294.108207 
L 89.085699 295.269701 
L 88.24173 295.45361 
L 87.866632 295.535814 
L 78.770513 297.257869 
L 70.42459 298.050843 
L 66.017192 298.190598 
L 63.86038 298.093648 
L 61.203071 297.353248 
L 60.859599 297.179675 
L 60.447863 296.978117 
L 60.015629 296.675366 
L 59.495994 296.3529 
L 58.890336 295.793001 
L 58.395415 295.352553 
L 57.014848 293.428785 
L 56.128147 291.60125 
L 55.889555 290.933138 
L 55.40325 289.225425 
L 54.818657 284.598819 
L 54.836439 280.472386 
L 55.061366 277.721431 
L 55.291045 275.720736 
L 55.504257 274.095172 
L 55.854321 271.969434 
L 56.077103 270.70152 
L 56.222593 269.968739 
L 56.421994 268.843348 
L 57.48372 263.906217 
L 57.629209 263.341438 
L 57.858817 262.305662 
L 58.007744 261.715874 
L 58.233915 260.706989 
L 58.467704 259.840222 
L 58.709243 258.839875 
L 59.035154 257.589441 
L 59.265434 256.627832 
L 59.384322 256.213963 
L 60.484501 252.0608 
L 60.687831 251.33727 
L 62.31633 245.460229 
L 62.547538 244.582754 
L 62.795973 243.709621 
L 63.276452 241.583883 
L 60.849928 238.207711 
L 58.32769 234.282328 
L 55.137372 228.204238 
L 54.537716 226.703717 
L 54.098981 225.578326 
L 53.69467 224.327892 
L 53.154161 222.45224 
L 52.468289 217.825634 
L 52.513675 215.046891 
L 52.76147 213.324071 
L 53.076322 212.000366 
L 53.213662 211.573463 
L 53.45142 210.853328 
L 53.60525 210.448072 
L 54.450783 208.697464 
L 55.44861 207.196943 
L 56.264652 206.179704 
L 57.296171 205.159876 
L 58.702787 204.023581 
L 60.015629 203.153502 
L 61.047148 202.57502 
L 61.234697 202.498444 
L 61.609794 202.291321 
L 62.266215 202.0086 
L 63.110185 201.643533 
L 67.236259 200.507723 
L 68.924199 200.490877 
L 69.955718 200.658833 
L 70.799687 200.966815 
L 72.112529 201.769042 
L 72.742683 202.32025 
L 74.175567 204.414605 
L 74.388433 204.946162 
L 74.703945 205.821466 
L 74.850147 206.321639 
L 75.412794 210.573116 
L 75.338575 213.449114 
L 75.167226 215.324766 
L 74.821031 218.075721 
L 74.498949 219.951372 
L 74.28994 221.201806 
L 73.644178 224.327892 
L 73.237822 226.10455 
L 73.088167 226.703717 
L 72.862725 227.711358 
L 72.642725 228.579368 
L 72.112529 230.733372 
L 71.957848 231.330323 
L 71.362334 233.634237 
L 71.226281 234.081278 
L 70.960969 235.081626 
L 70.143266 238.143416 
L 70.005306 238.582841 
L 69.768169 239.497194 
L 69.714163 239.708232 
L 70.42459 240.595821 
L 77.082574 248.014248 
L 77.773974 248.711358 
L 78.770513 249.751733 
L 79.370363 250.336923 
L 80.270904 251.241627 
L 81.006083 251.962487 
L 81.489971 252.427561 
L 83.36546 254.243515 
L 84.147878 254.963529 
L 84.959625 255.714274 
L 88.710602 259.143592 
L 89.238298 259.590135 
L 89.648346 259.93876 
L 90.679865 260.84659 
L 96.212555 265.519348 
L 96.627436 265.842306 
L 97.1503 266.279836 
L 97.72294 266.71761 
L 98.838239 267.632941 
L 99.5409 267.968044 
L 99.776347 266.842654 
L 100.020625 265.842306 
L 100.308564 264.591872 
L 101.370148 260.31979 
L 101.607574 259.465092 
L 101.839021 258.522817 
L 101.968776 258.089614 
L 102.307893 256.796223 
L 102.471612 256.213963 
L 103.382342 253.087878 
L 103.629947 252.212574 
L 104.330963 249.961792 
L 104.626969 248.961445 
L 109.622297 234.574939 
L 110.147493 233.205974 
L 110.747591 231.645721 
L 110.985724 231.080236 
L 111.310237 230.23973 
L 111.471195 229.829802 
L 118.594831 213.449114 
L 118.967734 212.57381 
L 118.718416 212.280451 
L 118.182486 211.82355 
L 117.780672 211.478135 
L 116.561605 210.384948 
L 115.898603 209.822855 
L 113.748372 207.913716 
L 113.058878 207.321987 
L 112.43553 206.759049 
L 111.779109 206.216061 
L 111.028914 205.553456 
L 109.592442 204.320945 
L 108.864905 203.695728 
L 107.184163 202.243935 
L 105.351596 200.694686 
L 104.90516 200.319555 
L 104.165433 199.694338 
L 103.245637 198.897225 
L 102.673196 198.443904 
L 101.276374 197.261268 
L 100.807502 196.875623 
L 100.117935 196.318166 
L 99.49466 195.786097 
L 98.744465 195.18049 
L 95.049058 192.191733 
L 94.524616 191.756877 
L 94.101447 191.441473 
L 93.680646 191.108792 
L 84.490753 184.12029 
L 84.115655 184.360481 
L 80.083355 187.097161 
L 79.614483 187.379184 
L 79.145611 187.709969 
L 78.676739 187.994633 
L 77.926543 188.48643 
L 76.80125 189.152738 
L 76.519927 189.34537 
L 76.051055 189.614386 
L 69.393071 193.235019 
L 68.73665 193.530697 
L 68.41414 193.692254 
L 67.142485 194.239205 
L 66.39229 194.525554 
L 66.017192 194.698018 
L 62.922636 195.729921 
L 62.052064 195.943036 
L 61.047148 196.137189 
L 59.359208 196.386833 
L 57.577494 196.489987 
L 55.889555 196.350746 
L 54.576713 196.046036 
L 52.326127 195.086905 
L 50.311086 193.442167 
L 48.739868 191.316429 
L 47.992013 189.815908 
L 47.40989 188.190344 
L 47.150374 187.31504 
L 46.732577 185.189302 
L 46.597946 184.439041 
L 46.37756 181.437999 
L 46.388592 178.061827 
L 46.58429 175.686002 
L 46.88721 173.798269 
L 47.131683 172.810003 
L 47.358569 171.9347 
L 48.963688 168.30844 
L 49.41912 167.637551 
L 50.544413 166.305796 
L 52.794999 164.643254 
L 55.712089 163.681834 
L 56.921073 163.536053 
L 58.702787 163.529323 
L 60.15697 163.681834 
L 61.047148 163.863254 
L 62.453764 164.152343 
L 65.360771 165.069597 
L 66.204741 165.386069 
L 66.964396 165.682529 
L 67.423808 165.883023 
L 68.129507 166.182702 
L 68.455327 166.346402 
L 69.768169 166.954006 
L 75.730731 170.184092 
L 76.051055 170.385614 
L 77.184971 171.059396 
L 77.832769 171.468013 
L 78.592467 171.9347 
L 79.239385 172.375362 
L 79.744127 172.68496 
L 80.177129 172.988197 
L 80.702156 173.310177 
L 81.021099 173.519141 
L 83.653703 175.310872 
L 84.490753 175.880005 
L 85.991144 174.779197 
L 86.468418 174.435568 
L 87.39776 173.753673 
L 87.960406 173.308958 
L 88.710602 172.75535 
L 89.460797 172.165517 
L 89.937983 171.809656 
L 90.867413 171.119518 
L 91.43006 170.653934 
L 91.992706 170.235259 
L 92.367804 169.914107 
L 92.824045 169.558875 
L 93.305548 169.179008 
L 93.868195 168.753961 
L 94.61839 168.148856 
L 95.274811 167.634128 
L 96.30633 166.783724 
L 96.775202 166.404869 
L 97.337848 165.971962 
L 97.712946 165.647987 
L 98.369367 165.129944 
L 99.213337 164.430156 
L 99.820671 163.931921 
L 112.247981 153.387756 
L 115.62386 150.416585 
L 116.092732 150.011978 
L 118.624642 147.778509 
L 118.905965 147.530603 
L 118.954608 147.301146 
L 118.530867 146.414757 
L 117.968221 145.206192 
L 117.486459 144.175061 
L 117.124251 143.379085 
L 111.76755 130.920458 
L 111.436927 130.045155 
L 111.216463 129.527793 
L 110.378948 127.419243 
L 110.241443 127.044113 
L 109.240673 124.418201 
L 108.830693 123.29281 
L 108.456636 122.292463 
L 108.001061 121.042028 
L 107.704079 120.166725 
L 107.339197 119.166377 
L 106.860559 117.7909 
L 106.591629 117.040639 
L 106.271532 116.040292 
L 106.130419 115.665162 
L 105.871321 114.87322 
L 104.245351 109.788121 
L 103.948854 108.787774 
L 103.698114 108.037513 
L 103.382342 106.912122 
L 103.151862 106.161341 
L 99.400886 91.937831 
L 98.838239 92.367739 
L 98.463141 92.689115 
L 97.871374 93.157346 
L 96.118781 94.574891 
L 94.053257 96.283432 
L 93.399323 96.828026 
L 91.984393 98.03404 
L 91.336285 98.578844 
L 89.367023 100.308138 
L 88.898151 100.705602 
L 87.39776 102.060479 
L 86.741339 102.635715 
L 86.308334 103.035776 
L 83.740557 105.422248 
L 83.271685 105.845267 
L 82.427716 106.677032 
L 81.865069 107.206495 
L 79.989581 109.057525 
L 79.33316 109.702365 
L 70.834809 118.91629 
L 69.727595 120.416811 
L 69.904224 121.042028 
L 70.440525 122.91768 
L 70.757741 124.168114 
L 70.931716 124.793331 
L 71.831206 128.157047 
L 72.052169 129.044807 
L 72.335467 130.170198 
L 72.642725 131.420632 
L 72.779588 131.920806 
L 73.286216 134.171587 
L 73.539064 135.171935 
L 73.860419 136.797499 
L 74.007936 137.422716 
L 74.321506 139.048281 
L 74.472825 139.798541 
L 75.406557 147.80132 
L 75.394634 149.98572 
L 75.332369 150.802362 
L 75.14444 152.302883 
L 74.925762 153.365267 
L 74.799072 153.803404 
L 74.550664 154.62431 
L 74.323256 155.178882 
L 74.081792 155.741715 
L 72.300078 158.092546 
L 70.518364 159.187024 
L 69.393071 159.475556 
L 67.798906 159.56599 
L 65.454545 159.175588 
L 64.891899 158.987163 
L 64.282854 158.805141 
L 63.86038 158.62893 
L 62.922636 158.273889 
L 60.594076 157.179576 
L 60.363339 157.054533 
L 59.82808 156.726176 
L 58.890336 156.10533 
L 58.133242 155.554012 
L 55.943628 153.428274 
L 54.576713 151.506001 
L 53.708788 149.802015 
L 52.669454 146.175755 
L 52.481413 141.799236 
L 52.678339 139.923585 
L 53.453906 136.422369 
L 55.79578 130.391325 
L 56.874905 128.294547 
L 57.48372 127.148194 
L 61.641295 120.666898 
L 63.33244 118.16603 
L 63.176084 117.665856 
L 62.94338 116.790552 
L 62.825825 116.415422 
L 61.984892 113.403332 
L 57.73458 97.158736 
L 57.514239 96.158388 
L 57.378875 95.658215 
L 56.674018 92.282042 
L 56.523306 91.656825 
L 56.264652 90.336011 
L 55.946647 88.53074 
L 55.604679 86.530045 
L 55.19743 83.529003 
L 54.951443 81.153178 
L 54.816412 78.777353 
L 54.820845 75.276138 
L 54.95181 73.462336 
L 55.113333 72.275096 
L 55.579912 70.024314 
L 56.264652 68.07297 
L 56.5121 67.523446 
L 57.050409 66.523098 
L 57.589296 65.647794 
L 59.546757 63.609326 
L 60.065121 63.271969 
L 60.953373 62.753154 
L 62.147795 62.271622 
L 63.203959 61.985682 
L 65.923418 61.810104 
L 69.955718 61.916515 
L 79.895806 62.917882 
L 81.021099 63.099317 
L 82.146392 63.27799 
L 82.709039 63.374756 
L 93.506923 65.897881 
L 94.055744 66.06862 
L 95.776134 66.398055 
L 95.613227 63.772143 
L 95.49916 55.519278 
L 95.743683 52.497395 
L 95.882248 51.767975 
L 96.118781 50.483799 
L 96.270144 49.892324 
L 96.493879 49.06766 
L 96.643712 48.64189 
L 96.962751 47.722589 
L 97.289455 47.016325 
L 97.578797 46.391108 
L 98.511046 44.890587 
L 99.682209 43.49879 
L 101.658221 42.014588 
L 103.151862 41.336603 
L 106.340193 40.747696 
L 107.840583 40.766071 
L 110.521639 41.139284 
L 111.028914 41.253739 
L 112.716853 41.718329 
L 113.654598 42.002775 
L 114.592342 42.343546 
L 115.385311 42.639805 
L 115.717635 42.784872 
L 117.874446 43.711636 
L 118.343319 43.940374 
L 119.065768 44.26537 
L 119.374837 44.434305 
L 120.070725 44.765544 
L 120.406356 44.957095 
L 120.969002 45.227464 
L 123.969784 46.893198 
L 124.907528 47.467485 
L 125.845272 48.031282 
L 132.723025 52.518235 
L 133.159677 52.837282 
L 133.722324 53.219836 
L 134.874571 54.018757 
L 135.410263 54.425782 
L 136.254233 55.028964 
L 140.00521 57.689517 
L 140.380307 57.482261 
L 140.942954 57.218136 
L 151.539463 52.3617 
L 152.289659 52.080826 
L 153.414952 51.609805 
L 153.977598 51.388796 
L 159.32274 49.45991 
L 165.04298 47.711652 
L 167.762438 47.004512 
L 170.950768 46.342195 
L 172.732482 46.051004 
L 173.388903 45.95066 
L 176.389685 45.588079 
L 181.547278 45.465036 
L 184.226953 45.640848 
L 184.829383 45.71742 
L 186.366241 45.890934 
L 186.798645 45.968369 
L 187.957281 46.141021 
L 188.486585 46.224383 
L 189.518104 46.447041 
L 191.674915 46.868528 
L 193.644178 47.347191 
L 194.675697 47.613627 
L 205.084657 51.0288 
L 205.928627 51.353283 
L 209.412766 52.768322 
L 209.867153 52.970373 
L 210.593514 53.268496 
L 210.804897 53.356311 
L 217.672804 56.519625 
L 218.119302 56.73752 
L 220.088565 57.719049 
L 220.530113 57.394929 
L 221.401407 56.73336 
L 222.151602 56.205008 
L 222.620474 55.849285 
L 229.841472 50.767628 
L 230.966397 50.054607 
L 231.247721 49.853607 
L 231.764137 49.517193 
L 233.216984 48.595327 
L 234.374136 47.891629 
L 237.905705 45.846499 
L 238.497377 45.515804 
L 240.531388 44.466986 
L 241.375358 44.074608 
L 241.84423 43.840183 
L 248.127116 41.469216 
L 248.939828 41.264328 
L 249.721282 41.096422 
L 250.846575 40.914128 
L 251.502996 40.838669 
L 254.034905 40.787178 
L 256.097942 41.105362 
L 257.89892 41.764502 
L 258.629852 42.203464 
L 259.098724 42.475375 
L 260.786663 43.985921 
L 261.767191 45.265717 
L 262.474603 46.472264 
L 262.781396 47.141369 
L 264.071283 51.392845 
L 264.382747 53.643626 
L 264.522624 59.770754 
L 264.350091 66.545141 
L 264.378744 66.523098 
L 265.756707 66.10277 
L 266.491569 65.897881 
L 267.257098 65.710558 
L 271.476947 64.602813 
L 272.320917 64.409645 
L 272.60224 64.347996 
L 273.915082 64.064873 
L 274.665277 63.884771 
L 278.885126 63.105245 
L 280.104194 62.917882 
L 280.573066 62.849018 
L 281.979682 62.638692 
L 284.324043 62.355318 
L 286.480854 62.14253 
L 288.73144 61.97799 
L 296.107059 61.896492 
L 296.608492 61.971007 
L 297.264913 62.111105 
L 298.765303 62.629191 
L 300.783215 63.897187 
L 301.297213 64.360398 
L 302.141183 65.327694 
L 302.815916 66.273011 
L 303.767764 68.148663 
L 304.137986 69.14901 
L 304.466151 70.274401 
L 304.579318 70.714955 
L 304.811496 71.899965 
L 305.176892 75.151094 
L 305.150823 79.777701 
L 304.766866 83.905907 
L 304.631482 84.779437 
L 304.289681 87.155262 
L 304.053186 88.53074 
L 303.829122 89.814788 
L 303.685471 90.531435 
L 303.476372 91.656825 
L 302.834624 94.657867 
L 302.610055 95.692081 
L 302.461128 96.283432 
L 302.234957 97.292636 
L 302.015908 98.159083 
L 301.483325 100.409865 
L 301.231477 101.410212 
L 297.827559 114.074331 
L 297.664461 114.664814 
L 296.646929 118.291073 
L 297.367994 119.291421 
L 300.084292 123.167767 
L 300.86766 124.418201 
L 301.872952 126.043765 
L 302.51628 127.148806 
L 303.078927 128.187426 
L 303.666878 129.294894 
L 304.862095 131.795762 
L 305.461643 133.296283 
L 305.900562 134.421674 
L 306.30515 135.672108 
L 306.845456 137.54776 
L 307.531711 142.174366 
L 307.486325 144.948941 
L 306.48888 149.301841 
L 306.01314 150.427232 
L 304.731305 152.55297 
L 303.620171 153.928447 
L 300.640792 156.447512 
L 300.078145 156.777678 
L 299.796822 156.966213 
L 299.234176 157.252447 
L 298.859078 157.473519 
L 298.202657 157.781769 
L 297.921334 157.931055 
L 295.201875 158.973255 
L 294.538942 159.180271 
L 293.232613 159.46878 
L 290.982027 159.503229 
L 290.044282 159.341167 
L 289.200313 159.034185 
L 287.81203 158.179924 
L 287.492443 157.929837 
L 286.630219 156.929489 
L 286.105757 156.084654 
L 285.706395 155.303925 
L 285.387541 154.428621 
L 285.244354 154.053491 
L 284.901705 152.55297 
L 284.846722 152.17784 
L 284.579451 148.801667 
L 284.661247 146.550886 
L 284.83241 144.675234 
L 285.178106 141.924279 
L 285.500829 140.048628 
L 285.709725 138.798194 
L 286.35569 135.672108 
L 286.762178 133.893887 
L 286.911654 133.296283 
L 287.137275 132.287079 
L 287.356804 131.420632 
L 287.887471 129.26519 
L 288.042152 128.669677 
L 288.637666 126.364389 
L 288.773387 125.918722 
L 289.038459 124.918374 
L 289.950508 121.516316 
L 290.165984 120.791942 
L 290.199207 120.166725 
L 288.07502 117.639998 
L 286.889325 116.290379 
L 286.199531 115.526659 
L 284.374596 113.539423 
L 283.386299 112.473544 
L 281.885908 110.944568 
L 280.479291 109.503008 
L 279.875557 108.912817 
L 279.072675 108.102043 
L 278.134931 107.206495 
L 272.977338 102.380313 
L 272.29956 101.785342 
L 271.289398 100.857374 
L 270.820526 100.458223 
L 268.609133 98.534213 
L 268.194842 98.190147 
L 266.788226 96.973966 
L 266.251945 96.533519 
L 265.944256 96.281515 
L 263.037249 93.874119 
L 262.276422 93.28239 
L 261.161761 92.367739 
L 260.45882 92.031956 
L 260.22258 93.157346 
L 259.979209 94.157694 
L 259.691436 95.408128 
L 258.536077 100.038481 
L 258.29595 100.910038 
L 258.067205 101.834048 
L 257.912809 102.410559 
L 257.31701 104.514509 
L 257.188098 104.911428 
L 256.8467 106.161862 
L 256.514026 107.287253 
L 256.285491 108.078408 
L 256.097942 108.68593 
L 255.859578 109.412991 
L 255.62907 110.203344 
L 255.394182 110.913512 
L 255.160198 111.720538 
L 255.012222 112.163946 
L 254.729399 113.03925 
L 254.316228 114.311447 
L 254.028449 115.164988 
L 253.320211 117.290726 
L 252.815837 118.735549 
L 252.660658 119.166377 
L 251.034123 123.683245 
L 250.60463 124.793331 
L 250.190154 125.921347 
L 249.569789 127.544286 
L 248.689763 129.759123 
L 248.528499 130.170198 
L 241.094035 147.22229 
L 241.032266 147.42619 
L 241.281584 147.720168 
L 241.816151 148.17645 
L 242.219328 148.522323 
L 243.438395 149.615408 
L 244.10078 150.177145 
L 246.251628 152.087059 
L 246.94091 152.678013 
L 247.56447 153.241311 
L 248.238123 153.803404 
L 249.439958 154.863077 
L 249.966916 155.303925 
L 250.377703 155.649938 
L 251.59677 156.726822 
L 252.065642 157.124359 
L 253.031194 157.929837 
L 253.770429 158.555054 
L 254.878875 159.506673 
L 257.018254 161.306009 
L 257.326179 161.556096 
L 258.723626 162.739159 
L 259.192498 163.124377 
L 260.036468 163.810193 
L 263.131024 166.352848 
L 263.69367 166.783724 
L 264.53764 167.492462 
L 265.100287 167.923288 
L 265.662933 168.38245 
L 266.850217 169.308788 
L 267.175313 169.558875 
L 268.194842 170.378094 
L 268.917618 170.934352 
L 269.24296 171.184439 
L 270.070331 171.821941 
L 275.628729 175.811046 
L 279.297844 173.310177 
L 282.917426 171.009104 
L 286.762178 168.758558 
L 293.138838 165.642079 
L 293.661702 165.432442 
L 294.45168 165.135577 
L 295.201875 164.878708 
L 299.32795 163.770428 
L 302.985152 163.530231 
L 304.391769 163.71761 
L 306.079708 164.143874 
L 307.697663 164.932268 
L 308.330294 165.36507 
L 308.754884 165.682529 
L 309.268039 166.128582 
L 310.334307 167.308093 
L 311.332538 168.808614 
L 312.75761 172.30983 
L 313.019015 173.395046 
L 313.161774 174.185481 
L 313.430463 175.936089 
L 313.625801 181.312956 
L 313.447669 183.813824 
L 313.187868 185.689476 
L 312.478594 188.565474 
L 311.42485 191.015298 
L 310.955978 191.842684 
L 310.051737 193.067037 
L 309.076978 194.067385 
L 308.330294 194.635356 
L 308.048971 194.858595 
L 307.486325 195.193266 
L 305.704611 195.981055 
L 304.954415 196.187102 
L 304.766866 196.237205 
L 303.36025 196.444428 
L 301.578536 196.478532 
L 299.890597 196.326869 
L 297.077364 195.729921 
L 294.264131 194.789984 
L 289.987949 192.941994 
L 289.669185 192.767344 
L 288.987505 192.44182 
L 288.637666 192.245835 
L 288.07502 191.974806 
L 281.406033 188.0653 
L 280.760615 187.625307 
L 280.255104 187.31504 
L 279.822871 187.012288 
L 279.297343 186.689823 
L 278.978901 186.480859 
L 276.526194 184.814172 
L 275.79057 184.291955 
L 275.424904 184.188954 
L 274.383954 184.948553 
L 273.727533 185.405901 
L 273.352436 185.700065 
L 272.858557 186.064606 
L 271.049521 187.440083 
L 269.038812 188.975146 
L 268.382391 189.484956 
L 266.506903 190.969086 
L 265.944256 191.38737 
L 265.569159 191.708103 
L 265.100287 192.076712 
L 264.53764 192.507944 
L 264.022691 192.941994 
L 248.595989 205.873776 
L 247.752019 206.612244 
L 244.37614 209.583415 
L 243.907268 209.988022 
L 241.375358 212.221491 
L 241.094035 212.469397 
L 241.04489 212.698854 
L 241.469133 213.586443 
L 242.087566 214.949635 
L 242.336729 215.449809 
L 242.781974 216.413168 
L 243.371702 217.70059 
L 243.96548 219.076068 
L 244.205529 219.576242 
L 244.519198 220.326502 
L 244.868528 221.076763 
L 245.251079 221.952067 
L 248.625839 230.079889 
L 249.112116 231.330323 
L 249.375612 231.95554 
L 249.852331 233.205974 
L 250.66409 235.331712 
L 251.074902 236.457103 
L 251.513196 237.582494 
L 251.851263 238.582841 
L 251.998521 238.957972 
L 252.295695 239.833275 
L 252.660658 240.833623 
L 253.097161 242.053399 
L 253.40809 242.959361 
L 253.727886 243.959708 
L 253.869251 244.334838 
L 254.128679 245.127994 
L 255.754649 250.211879 
L 256.050873 251.212226 
L 256.301427 251.962487 
L 256.617338 253.087878 
L 256.848138 253.840222 
L 260.599114 268.062169 
L 261.161761 267.632941 
L 261.536859 267.310885 
L 262.128626 266.842654 
L 263.881219 265.425109 
L 265.946743 263.716568 
L 266.600677 263.171974 
L 268.016506 261.96596 
L 268.851263 261.274209 
L 269.324651 260.84057 
L 269.976556 260.284893 
L 270.761235 259.590135 
L 272.508466 258.038809 
L 273.44621 257.181321 
L 274.571503 256.163158 
L 275.603022 255.188566 
L 276.250203 254.588399 
L 276.915864 253.95374 
L 277.436967 253.463008 
L 284.417817 246.414519 
L 286.668403 243.940842 
L 288.356343 242.032011 
L 290.231831 239.49851 
L 289.915063 238.332754 
L 289.506749 236.832233 
L 289.387861 236.438744 
L 287.197377 227.954151 
L 286.949726 226.909517 
L 286.35569 224.327892 
L 286.13913 223.202501 
L 285.991722 222.577284 
L 285.678154 220.951719 
L 285.526795 220.201459 
L 284.583769 211.948593 
L 284.617996 209.947899 
L 285.261787 205.891566 
L 285.67638 204.821118 
L 285.918208 204.257867 
L 287.699922 201.90728 
L 289.57541 200.780115 
L 290.325606 200.610998 
L 290.700703 200.51385 
L 292.576192 200.492577 
L 294.076582 200.737958 
L 295.716394 201.194859 
L 296.13962 201.371576 
L 297.077364 201.727731 
L 299.178506 202.69538 
L 299.515499 202.893718 
L 300.055327 203.195554 
L 300.359469 203.394873 
L 301.022046 203.820771 
L 303.954496 206.446683 
L 305.329513 208.33342 
L 306.642355 211.115356 
L 307.137072 212.823897 
L 307.539175 217.450504 
L 307.39255 219.502573 
L 307.258916 220.326502 
L 306.938057 222.07711 
L 305.704611 226.123315 
L 305.416832 226.82876 
L 303.731836 230.580063 
L 301.766085 234.127645 
L 300.078145 236.840969 
L 298.358226 239.333102 
L 296.667129 241.83397 
L 296.823629 242.334144 
L 297.055962 243.209448 
L 297.173653 243.584578 
L 298.065632 246.835707 
L 298.296431 247.604111 
L 301.326056 258.964918 
L 301.532017 259.840222 
L 301.796151 260.84057 
L 302.015908 261.840917 
L 302.15182 262.341091 
L 302.660263 264.591872 
L 302.834624 265.342133 
L 303.172701 266.912701 
L 303.490875 268.468218 
L 303.886503 270.593956 
L 304.041211 271.344217 
L 304.297994 272.864035 
L 304.700541 275.595693 
L 304.954415 277.78339 
L 305.082966 279.346995 
L 305.178984 284.723862 
L 305.04819 286.533631 
L 304.886375 287.724904 
L 304.420088 289.975686 
L 303.735348 291.92603 
L 303.4879 292.476554 
L 302.888892 293.601945 
L 302.141183 294.672306 
L 301.297213 295.640192 
L 300.265694 296.514043 
L 299.743864 296.853074 
L 299.046627 297.247378 
L 298.22987 297.603334 
L 297.827559 297.737716 
L 296.045845 298.114713 
L 294.733003 298.189896 
L 292.201094 298.159592 
L 288.356343 298.00268 
L 283.855171 297.572256 
L 281.229487 297.257869 
L 277.103412 296.567961 
L 266.489799 294.102119 
L 266.038031 293.980429 
L 264.912738 293.64328 
L 264.256317 293.516744 
L 264.236243 293.726989 
L 264.302485 294.727336 
L 264.561462 302.855158 
L 264.443866 305.7821 
L 264.373913 306.481417 
L 264.032787 308.732199 
L 263.787445 309.899271 
L 263.636746 310.482807 
L 263.412347 311.21134 
L 263.267529 311.608197 
L 263.037249 312.276543 
L 262.710255 312.983675 
L 262.420715 313.608892 
L 261.488399 315.109413 
L 260.317791 316.50121 
L 258.34278 317.985412 
L 256.754363 318.684505 
L 256.097942 318.894638 
L 252.909612 319.264204 
L 250.933245 319.110802 
L 249.815056 318.910539 
L 248.937833 318.735672 
L 248.595989 318.651456 
L 247.189372 318.265163 
L 242.81807 316.609934 
L 242.500651 316.452192 
L 240.414968 315.484543 
L 239.968742 315.259742 
L 238.6559 314.551146 
L 238.093253 314.265464 
L 235.280021 312.651517 
L 232.721895 311.108024 
L 232.279239 310.798611 
L 231.763745 310.482807 
L 231.43527 310.269935 
L 222.714249 304.21955 
L 219.99479 302.310483 
L 219.619693 302.517739 
L 219.057046 302.781864 
L 208.460537 307.6383 
L 207.710341 307.919538 
L 206.866371 308.27353 
L 206.345265 308.482112 
L 205.272206 308.90268 
L 204.522011 309.167173 
L 202.17765 310.034382 
L 200.958583 310.442779 
L 200.53251 310.60785 
L 199.364418 311.006225 
L 197.864027 311.4452 
L 197.488929 311.558591 
L 196.926283 311.758876 
L 195.238343 312.218804 
L 194.95702 312.288631 
L 191.75374 313.108718 
L 190.455848 313.391788 
L 188.861683 313.684864 
L 187.830164 313.884145 
L 182.391248 314.503896 
L 179.67179 314.556089 
L 176.389685 314.412182 
L 174.514196 314.204709 
L 168.23131 313.098858 
L 167.481115 312.911142 
L 166.676558 312.733588 
L 166.355822 312.652993 
L 165.324303 312.387256 
L 161.104454 311.146926 
L 159.099605 310.482807 
L 158.666319 310.314491 
L 156.617125 309.607503 
L 156.415733 309.527703 
L 155.571763 309.206515 
L 151.914561 307.780542 
L 151.25814 307.517697 
L 141.8209 303.230288 
L 141.5056 303.05258 
L 140.809037 302.730115 
L 140.474082 302.543413 
L 139.723886 302.402927 
L 138.598593 303.26664 
L 137.848398 303.795383 
L 137.379526 304.150715 
L 131.94061 308.021563 
L 131.190414 308.532287 
L 130.346444 309.112065 
L 129.502475 309.652579 
L 128.095858 310.553281 
L 127.66104 310.857937 
L 126.783016 311.404884 
L 125.470175 312.182247 
L 125.095077 312.413675 
L 124.344881 312.886354 
L 123.876009 313.156058 
L 116.561605 316.888064 
L 115.811409 317.170628 
L 114.592342 317.656454 
L 113.842146 317.913137 
L 109.528523 319.033368 
L 106.246418 319.246435 
L 106.152644 319.239199 
L 106.152644 319.239199 
M 106.260627 311.983328 
L 107.184163 312.020567 
L 109.2472 311.792967 
L 111.310237 311.295831 
L 115.061214 309.922453 
L 116.092732 309.445988 
L 116.561605 309.222405 
L 117.780672 308.657289 
L 118.15577 308.442946 
L 118.718416 308.172181 
L 119.374837 307.811909 
L 120.125033 307.413967 
L 120.50013 307.189268 
L 121.062777 306.895203 
L 121.3441 306.716171 
L 121.906747 306.410003 
L 122.281844 306.177229 
L 123.03204 305.704811 
L 123.500912 305.434507 
L 124.626205 304.768049 
L 124.907528 304.572572 
L 125.3764 304.290362 
L 125.845272 303.959195 
L 126.314144 303.675245 
L 126.972019 303.230288 
L 128.095858 302.518684 
L 128.377182 302.31592 
L 129.042097 301.854811 
L 130.124245 301.10455 
L 131.284189 300.308231 
L 133.292577 298.853769 
L 133.065903 298.655182 
L 132.501809 298.353595 
L 131.753061 297.914633 
L 131.190414 297.624688 
L 130.158896 297.028174 
L 129.404758 296.602987 
L 128.658505 296.155843 
L 128.095858 295.832703 
L 122.094295 292.224551 
L 121.062777 291.569355 
L 120.102998 290.976033 
L 119.562386 290.632543 
L 117.686898 289.410313 
L 117.186767 289.100382 
L 116.749153 288.791376 
L 116.238262 288.475165 
L 115.811409 288.173405 
L 115.289452 287.849948 
L 114.967439 287.638193 
L 113.373274 286.644904 
L 112.810628 286.900854 
L 102.120344 291.28664 
L 101.407864 291.60125 
L 101.316946 292.101424 
L 101.073809 295.727683 
L 100.955556 298.103508 
L 100.879228 303.605419 
L 101.420045 307.856895 
L 102.439928 310.107676 
L 103.151862 310.884704 
L 104.558479 311.677449 
L 106.260627 311.983328 
L 106.260627 311.983328 
M 252.31794 311.983328 
L 253.097161 312.032399 
L 254.034905 311.960574 
L 255.441521 311.677449 
L 256.47304 311.173223 
L 257.739713 309.857589 
L 258.499657 308.106982 
L 258.966876 305.731157 
L 259.089864 300.35429 
L 258.861586 294.602292 
L 258.592136 291.60125 
L 258.442303 291.509334 
L 247.581587 287.099687 
L 247.376921 287.006277 
L 246.532951 286.642362 
L 246.202581 286.849601 
L 244.657463 287.886209 
L 244.140662 288.225078 
L 242.406877 289.372331 
L 241.938005 289.655489 
L 241.187809 290.14484 
L 240.156291 290.789331 
L 239.687419 291.11289 
L 239.030998 291.521439 
L 237.999479 292.153424 
L 236.874186 292.868143 
L 236.311539 293.19492 
L 236.030216 293.387399 
L 235.561344 293.654975 
L 234.6236 294.234572 
L 233.797954 294.727336 
L 233.123209 295.134106 
L 232.560563 295.44735 
L 232.279239 295.630813 
L 231.716593 295.931492 
L 231.43527 296.120375 
L 230.872623 296.420272 
L 230.497525 296.650326 
L 229.090909 297.444028 
L 228.809586 297.624175 
L 228.246939 297.914633 
L 227.684293 298.253362 
L 227.121646 298.542782 
L 226.746549 298.906433 
L 227.37506 299.353942 
L 227.684293 299.573398 
L 228.90336 300.435955 
L 238.562126 306.680736 
L 239.129785 306.981591 
L 239.687419 307.303691 
L 240.263925 307.606808 
L 240.812712 307.926435 
L 241.434618 308.232025 
L 241.750456 308.415577 
L 242.313102 308.688343 
L 247.939568 311.059332 
L 248.595989 311.264962 
L 250.190154 311.680987 
L 251.226556 311.858284 
L 251.690544 311.930559 
L 252.31794 311.983328 
L 252.31794 311.983328 
M 177.486561 307.231678 
L 178.546496 307.305953 
L 181.922376 307.287611 
L 185.016931 307.009252 
L 186.235999 306.82238 
L 188.205262 306.523421 
L 188.955457 306.350958 
L 195.144569 304.842252 
L 197.488929 304.155726 
L 198.051576 303.955383 
L 199.083095 303.624402 
L 199.270643 303.55802 
L 200.114613 303.284391 
L 200.67726 303.068862 
L 201.239906 302.888645 
L 201.521229 302.788208 
L 202.083876 302.561983 
L 202.646523 302.348232 
L 205.55353 301.224177 
L 208.554311 299.989019 
L 208.74186 299.921568 
L 213.901939 297.478291 
L 213.899453 297.474976 
L 209.679604 294.051985 
L 209.116958 293.621843 
L 208.179213 292.831661 
L 206.836148 291.726294 
L 206.209951 291.18888 
L 205.629121 290.725947 
L 204.70956 289.94544 
L 203.991135 289.350469 
L 203.678041 289.078339 
L 202.514309 288.100035 
L 201.896327 287.559165 
L 201.33009 287.099687 
L 199.083095 285.159513 
L 198.411145 284.598819 
L 197.207606 283.537959 
L 196.682276 283.098298 
L 196.241988 282.723168 
L 195.515499 282.097951 
L 192.800208 279.700083 
L 191.821491 278.846822 
L 191.206043 278.289403 
L 190.685687 277.846474 
L 190.251285 277.471344 
L 189.049232 276.399695 
L 187.985861 275.47065 
L 187.267518 274.809656 
L 186.590779 274.220215 
L 185.579578 273.290809 
L 185.065317 272.844738 
L 184.5079 272.344564 
L 183.891638 271.778204 
L 183.112334 271.09413 
L 182.391248 270.429566 
L 181.864909 269.968739 
L 181.438366 269.593609 
L 180.140662 268.407319 
L 179.953113 268.357359 
L 179.578015 268.65898 
L 178.970937 269.218479 
L 159.697838 286.228432 
L 159.103421 286.724557 
L 156.97838 288.523427 
L 155.853087 289.492142 
L 155.29044 289.94544 
L 154.915343 290.26784 
L 152.852305 291.99064 
L 152.289659 292.433282 
L 151.914561 292.763498 
L 150.507945 293.906408 
L 149.663975 294.607029 
L 149.101328 295.040435 
L 148.538682 295.51486 
L 147.413389 296.410492 
L 146.850742 296.885017 
L 146.194321 297.395697 
L 146.100547 297.485124 
L 146.288096 297.676878 
L 146.944517 297.970405 
L 147.600938 298.298661 
L 148.06981 298.509716 
L 156.790831 302.164223 
L 157.634801 302.450794 
L 159.604064 303.17976 
L 160.16671 303.36266 
L 160.729357 303.558229 
L 161.573326 303.83226 
L 162.698619 304.191212 
L 170.76322 306.307683 
L 171.700964 306.488746 
L 172.26361 306.586239 
L 174.79552 306.969777 
L 177.046106 307.202013 
L 177.486561 307.231678 
L 177.486561 307.231678 
M 139.43305 294.227162 
L 139.536338 294.194954 
L 139.911435 293.927139 
L 140.849179 293.183789 
L 144.600156 290.209229 
L 145.048121 289.850643 
L 145.819587 289.225425 
L 146.569419 288.637448 
L 146.944517 288.315001 
L 147.672562 287.724904 
L 148.444908 287.092236 
L 149.007554 286.64912 
L 149.382652 286.315731 
L 150.098442 285.72421 
L 151.453083 284.598819 
L 152.289659 283.91781 
L 152.949592 283.348385 
L 153.602501 282.802184 
L 154.727794 281.835382 
L 155.196666 281.44049 
L 155.902175 280.847516 
L 175.105306 263.841612 
L 174.686796 263.466481 
L 173.295129 262.173404 
L 172.780226 261.715874 
L 172.169836 261.14794 
L 171.130102 260.215353 
L 168.887731 258.147206 
L 167.993438 257.339354 
L 167.481115 256.876143 
L 165.230529 254.801972 
L 164.56475 254.213268 
L 163.167492 252.943851 
L 161.396466 254.463355 
L 160.823131 254.968976 
L 160.354259 255.376445 
L 157.165929 258.099004 
L 156.603282 258.551132 
L 156.228184 258.881556 
L 154.44647 260.35694 
L 153.997395 260.715526 
L 153.321177 261.256421 
L 146.100547 266.86925 
L 145.631675 267.1988 
L 145.350352 267.399207 
L 144.693931 267.889699 
L 143.005991 269.133601 
L 141.644136 270.093783 
L 139.630112 271.501764 
L 139.131971 271.84439 
L 131.002865 277.129258 
L 130.533993 277.40268 
L 129.84691 277.846474 
L 125.939047 280.139303 
L 125.188851 280.552928 
L 124.907528 280.731176 
L 124.007889 281.222647 
L 123.03204 281.759383 
L 122.469393 282.045778 
L 122.094295 282.26798 
L 121.3441 282.664248 
L 120.969002 282.887547 
L 120.562931 283.098298 
L 120.593905 283.261997 
L 121.347687 283.723515 
L 122.18807 284.282198 
L 122.714953 284.598819 
L 123.03204 284.804992 
L 136.629331 292.789765 
L 137.191977 293.069436 
L 138.973691 294.042607 
L 139.43305 294.227162 
L 139.43305 294.227162 
M 220.552139 294.227162 
L 220.651211 294.212978 
L 221.495181 293.796529 
L 222.339151 293.321355 
L 222.901797 293.041591 
L 223.464444 292.715437 
L 224.308414 292.285793 
L 224.87106 291.948658 
L 225.433707 291.66017 
L 225.808804 291.433063 
L 226.396909 291.101077 
L 233.216984 287.137641 
L 233.498307 286.945448 
L 233.967179 286.673789 
L 237.155509 284.682922 
L 237.81193 284.281782 
L 238.280802 283.956502 
L 238.843449 283.6058 
L 239.046952 283.473428 
L 239.437635 283.223341 
L 239.406095 283.061784 
L 238.267827 282.473081 
L 237.718156 282.153743 
L 237.155509 281.865968 
L 236.311539 281.392126 
L 234.6236 280.469071 
L 233.685856 279.905072 
L 233.131024 279.597082 
L 232.841886 279.408207 
L 232.373014 279.144248 
L 231.211997 278.471692 
L 230.872623 278.266435 
L 229.347278 277.346301 
L 228.90336 277.047143 
L 228.340714 276.713755 
L 226.840323 275.770793 
L 225.943047 275.220563 
L 225.621256 275.010482 
L 219.074238 270.593956 
L 218.775723 270.3848 
L 215.064645 267.717958 
L 214.719533 267.467871 
L 214.180776 267.052713 
L 213.524355 266.589251 
L 210.054702 263.915488 
L 209.58583 263.558827 
L 208.797405 262.966308 
L 208.272988 262.527698 
L 207.70603 262.091004 
L 206.116176 260.786 
L 205.697136 260.465439 
L 205.178432 260.029796 
L 204.615785 259.600157 
L 203.959364 259.025438 
L 203.302943 258.493723 
L 202.17765 257.523909 
L 201.493422 256.964224 
L 200.750534 256.339007 
L 199.645741 255.376445 
L 196.926283 252.98934 
L 196.738734 253.006909 
L 195.425892 254.22329 
L 194.95702 254.637844 
L 193.925501 255.594869 
L 193.456629 256.010793 
L 192.425111 256.964717 
L 191.76869 257.543162 
L 191.299818 257.993969 
L 190.455848 258.757895 
L 188.861683 260.224742 
L 188.392811 260.639077 
L 187.361292 261.594902 
L 186.816976 262.091004 
L 185.954676 262.877047 
L 184.916702 263.966655 
L 185.332698 264.341785 
L 186.04845 264.996403 
L 186.728557 265.59222 
L 187.73639 266.518178 
L 188.25325 266.967697 
L 188.767908 267.427559 
L 192.893983 271.105215 
L 195.582958 273.469955 
L 195.988539 273.817499 
L 197.207606 274.910296 
L 197.957802 275.555382 
L 201.521229 278.656857 
L 202.047287 279.096909 
L 202.458974 279.44352 
L 203.584267 280.420594 
L 204.83706 281.472734 
L 205.459755 282.019761 
L 206.017887 282.473081 
L 206.397499 282.802401 
L 220.552139 294.227162 
L 220.552139 294.227162 
M 64.152123 290.85099 
L 64.798125 290.93284 
L 66.486064 290.949474 
L 71.643657 290.746989 
L 72.675176 290.673946 
L 74.550664 290.498884 
L 75.394634 290.41534 
L 77.926543 290.073262 
L 81.030867 289.600556 
L 84.678302 288.922309 
L 85.991144 288.64928 
L 86.835113 288.432463 
L 87.679083 288.247121 
L 87.960406 288.17768 
L 88.804376 287.970942 
L 94.899713 286.272362 
L 95.46236 286.070107 
L 96.400104 285.795693 
L 96.540948 285.474123 
L 96.813953 283.348385 
L 97.221506 280.347343 
L 98.042913 275.47065 
L 97.712946 275.14606 
L 96.521298 274.220215 
L 96.201923 273.970129 
L 95.087262 273.056169 
L 94.490146 272.594651 
L 93.961969 272.154321 
L 93.411124 271.719347 
L 93.103302 271.46926 
L 91.992706 270.532298 
L 91.43006 270.081498 
L 89.221308 268.218131 
L 88.774742 267.843001 
L 88.147955 267.288258 
L 87.679083 266.890547 
L 85.198362 264.716916 
L 84.584527 264.150881 
L 83.806395 263.466481 
L 82.896588 262.638094 
L 79.426934 259.384335 
L 74.588669 254.588399 
L 73.9712 253.963182 
L 67.705132 247.093898 
L 67.548571 247.460924 
L 62.388069 267.342827 
L 61.182762 273.344911 
L 60.953373 274.812242 
L 60.889307 275.220563 
L 60.324008 280.097256 
L 60.209704 283.223341 
L 60.335949 285.599166 
L 60.535025 286.849601 
L 61.609794 289.434045 
L 62.266215 290.08146 
L 62.828862 290.432032 
L 64.152123 290.85099 
L 64.152123 290.85099 
M 290.331857 290.85099 
L 291.638448 290.923265 
L 295.764522 290.875921 
L 297.452462 290.288897 
L 298.70751 288.975339 
L 299.301469 287.474818 
L 299.663861 285.599166 
L 299.749005 280.97256 
L 299.546513 278.471692 
L 299.390849 277.221257 
L 299.185489 275.595693 
L 297.490449 266.71761 
L 297.328224 266.092393 
L 297.108378 265.092046 
L 296.972952 264.591872 
L 296.453394 262.341091 
L 296.307504 261.840917 
L 296.045845 260.793557 
L 295.259464 257.714484 
L 294.866637 256.213963 
L 294.69343 255.588746 
L 292.430589 247.335881 
L 292.294868 247.093898 
L 291.954892 247.460924 
L 289.199949 250.587009 
L 288.356343 251.497488 
L 285.898816 254.088225 
L 284.980464 255.024393 
L 284.136494 255.888642 
L 282.917426 257.114566 
L 281.885908 258.127524 
L 279.447773 260.469512 
L 278.910667 260.965613 
L 277.828278 261.96596 
L 276.540766 263.142779 
L 275.603022 263.999644 
L 274.008856 265.404776 
L 273.352436 265.999154 
L 272.529041 266.71761 
L 271.664496 267.473993 
L 271.101849 267.930091 
L 270.726752 268.261176 
L 269.132587 269.622726 
L 268.476166 270.149285 
L 267.799295 270.719 
L 266.694452 271.632719 
L 264.573891 273.344911 
L 263.131024 274.50166 
L 262.568377 274.916846 
L 262.193279 275.235402 
L 261.956835 275.47065 
L 263.599896 285.795693 
L 264.256317 286.001958 
L 266.038031 286.552736 
L 267.047308 286.849601 
L 267.350873 286.933134 
L 268.945038 287.384038 
L 271.945819 288.166221 
L 272.883563 288.383609 
L 275.321698 288.922309 
L 276.259443 289.103698 
L 276.728315 289.190102 
L 283.855171 290.307968 
L 290.331857 290.85099 
L 290.331857 290.85099 
M 102.267319 283.598472 
L 102.401667 283.680244 
L 102.964314 283.451171 
L 103.869155 283.098298 
L 104.652253 282.79952 
L 105.453449 282.473081 
L 106.61895 281.847864 
L 105.402449 280.970644 
L 103.52696 279.576039 
L 102.964314 279.275933 
L 102.900247 279.597082 
L 102.267319 283.598472 
L 102.267319 283.598472 
M 257.397864 283.598472 
L 257.598333 283.680427 
L 257.732326 283.598472 
L 256.941912 279.24603 
L 256.47304 279.575039 
L 256.191717 279.778505 
L 255.535296 280.270018 
L 254.410003 281.113017 
L 253.898945 281.472734 
L 253.34747 281.972907 
L 253.472258 282.047422 
L 254.229446 282.348038 
L 254.691326 282.545356 
L 255.179786 282.723168 
L 255.62907 282.917463 
L 256.130845 283.098298 
L 256.566814 283.289527 
L 257.129461 283.512775 
L 257.397864 283.598472 
L 257.397864 283.598472 
M 113.64255 278.596735 
L 113.842146 278.67977 
L 114.12347 278.592686 
L 115.633054 277.846474 
L 119.736075 275.720736 
L 120.312581 275.418396 
L 132.503256 268.165877 
L 133.349741 267.592914 
L 134.472519 266.862677 
L 134.753842 266.671968 
L 136.348007 265.607956 
L 136.629331 265.415176 
L 137.4733 264.811034 
L 137.942172 264.506856 
L 138.223496 264.297073 
L 140.380307 262.790609 
L 141.318052 262.089785 
L 142.068247 261.546484 
L 146.100547 258.533111 
L 146.663194 258.078968 
L 147.22584 257.662587 
L 147.976035 257.066681 
L 148.351133 256.791601 
L 149.851524 255.571558 
L 150.299974 255.213616 
L 150.976817 254.672145 
L 155.665538 250.785047 
L 156.509508 250.057857 
L 156.97838 249.662501 
L 157.916124 248.822656 
L 158.197447 248.57505 
L 158.277985 248.461271 
L 157.916124 248.070404 
L 156.572606 246.835707 
L 155.755253 246.085446 
L 152.758531 243.298715 
L 152.09925 242.709274 
L 148.163584 239.062992 
L 147.094636 238.082668 
L 146.38187 237.407844 
L 145.876165 236.957277 
L 145.162803 236.281926 
L 144.657331 235.831886 
L 143.943735 235.156535 
L 143.434351 234.706495 
L 142.818442 234.134656 
L 141.379985 232.830844 
L 140.661631 232.156021 
L 140.151629 231.705453 
L 139.536338 231.133887 
L 138.129721 229.862353 
L 136.535556 228.387499 
L 135.639864 227.57902 
L 135.12894 227.116399 
L 132.59703 224.784174 
L 132.08277 224.327892 
L 131.471737 223.759352 
L 130.432653 222.827371 
L 128.470956 221.022193 
L 127.957338 220.576589 
L 127.345663 220.013291 
L 126.689242 219.433275 
L 125.445906 218.325808 
L 124.438656 217.400897 
L 123.920791 216.95033 
L 123.594686 216.642998 
L 123.470392 216.700243 
L 123.03204 217.667841 
L 122.844491 218.082287 
L 121.671592 220.576589 
L 121.250326 221.528817 
L 121.004076 222.07711 
L 119.65616 225.132727 
L 119.334264 225.828413 
L 118.99974 226.645754 
L 118.757336 227.20389 
L 118.15577 228.650059 
L 117.914413 229.204585 
L 117.3118 230.653936 
L 117.124251 231.115788 
L 116.783423 231.95554 
L 115.248763 235.808961 
L 115.094594 236.207016 
L 113.748372 239.784647 
L 113.589569 240.208406 
L 112.193015 244.084752 
L 111.779109 245.276686 
L 111.624616 245.710316 
L 110.465904 249.211532 
L 110.038804 250.461966 
L 109.809846 251.242793 
L 109.573153 251.962487 
L 109.340974 252.761177 
L 109.191679 253.212921 
L 108.872102 254.277207 
L 108.72554 254.713442 
L 108.436119 255.71379 
L 107.465486 259.126916 
L 107.246437 259.840222 
L 106.621516 262.275993 
L 106.490144 262.716221 
L 106.152644 264.071611 
L 106.084232 264.341785 
L 105.44107 266.967697 
L 105.2149 267.969086 
L 104.992214 268.843348 
L 104.464704 271.350674 
L 104.386865 271.84439 
L 104.652253 272.129503 
L 105.402449 272.679711 
L 112.247981 277.643241 
L 112.748827 277.971518 
L 113.185725 278.291715 
L 113.64255 278.596735 
L 113.64255 278.596735 
M 245.88237 278.596735 
L 246.157854 278.67977 
L 246.35659 278.596735 
L 247.611232 277.721431 
L 250.283928 275.822309 
L 250.7528 275.510677 
L 251.129335 275.220563 
L 251.971868 274.63186 
L 252.346965 274.332178 
L 252.848966 273.970129 
L 255.535296 271.967495 
L 255.609152 271.719347 
L 255.307978 270.218826 
L 254.829891 268.093088 
L 254.574563 267.092741 
L 254.358175 266.092393 
L 254.178556 265.342133 
L 249.757675 249.836749 
L 249.586935 249.336575 
L 249.158635 248.081237 
L 248.314665 245.54089 
L 244.188591 234.399695 
L 238.716824 221.451893 
L 236.405314 216.642998 
L 236.35821 216.700243 
L 212.586611 238.375226 
L 210.992446 239.8562 
L 210.429799 240.370412 
L 206.946705 243.584578 
L 206.209951 244.258389 
L 205.178432 245.225718 
L 204.70956 245.639845 
L 203.959364 246.351109 
L 203.490492 246.765236 
L 202.740297 247.477073 
L 202.271425 247.890909 
L 201.802553 248.575668 
L 202.552748 249.260603 
L 203.082136 249.711705 
L 203.490492 250.057857 
L 204.70956 251.089099 
L 208.085439 253.918384 
L 220.83876 263.656388 
L 221.312404 263.966655 
L 222.339151 264.682434 
L 224.402188 266.125091 
L 225.339932 266.740634 
L 227.407187 268.093088 
L 228.246939 268.663371 
L 228.760388 268.968392 
L 229.090909 269.177166 
L 238.280802 274.653439 
L 238.843449 274.93814 
L 241.00026 276.146001 
L 241.678152 276.470997 
L 242.125554 276.695328 
L 243.250847 277.291925 
L 243.813493 277.561471 
L 245.88237 278.596735 
L 245.88237 278.596735 
M 179.938097 259.465092 
L 180.046887 259.485115 
L 180.061903 259.465092 
L 180.751674 258.839875 
L 188.955457 251.330479 
L 189.424329 250.914388 
L 190.455848 249.960566 
L 191.001901 249.461619 
L 191.692904 248.836402 
L 191.962694 248.586315 
L 191.956239 248.424032 
L 191.328751 247.836054 
L 190.92472 247.457608 
L 185.535329 242.2091 
L 184.829383 241.506918 
L 182.081211 238.707885 
L 180.703308 237.272681 
L 179.953113 236.622218 
L 178.734045 237.868799 
L 175.733264 240.961332 
L 175.170617 241.506918 
L 173.95155 242.72904 
L 173.295129 243.372766 
L 171.138317 245.49129 
L 168.934094 247.585967 
L 168.036367 248.586315 
L 168.447205 248.961445 
L 169.356603 249.795658 
L 175.733264 255.641897 
L 176.240654 256.08892 
L 176.952331 256.754164 
L 177.469176 257.214311 
L 177.98385 257.679291 
L 179.938097 259.465092 
L 179.938097 259.465092 
M 163.013953 243.959708 
L 163.167492 244.042744 
L 163.35504 243.937409 
L 163.883889 243.459535 
L 165.88695 241.569472 
L 166.449596 241.042028 
L 168.236806 239.333102 
L 168.793957 238.794654 
L 171.155584 236.457103 
L 172.03805 235.581799 
L 175.600681 231.830497 
L 174.889294 231.018578 
L 173.352767 229.329628 
L 171.513415 227.247038 
L 161.948424 215.860273 
L 155.901813 208.072247 
L 149.569826 199.444251 
L 147.378082 196.318166 
L 144.383548 191.941646 
L 141.224277 187.144302 
L 140.286533 185.733377 
L 140.163251 185.814519 
L 139.536338 186.852073 
L 138.35991 188.815561 
L 136.723105 191.593585 
L 135.58601 193.567211 
L 134.511113 195.442862 
L 127.018669 209.447725 
L 126.595468 210.627685 
L 127.108782 211.073289 
L 127.720761 211.636587 
L 128.470956 212.290734 
L 130.065121 213.743093 
L 130.587942 214.199375 
L 131.015131 214.574505 
L 132.690805 216.103564 
L 133.441 216.781212 
L 148.790541 230.830149 
L 149.206629 231.20528 
L 150.976817 232.853868 
L 151.914561 233.706633 
L 158.853868 240.136027 
L 159.357341 240.583536 
L 160.072936 241.261903 
L 160.576408 241.708927 
L 161.292003 242.387294 
L 161.794886 242.834317 
L 162.511071 243.513164 
L 163.013953 243.959708 
L 163.013953 243.959708 
M 196.665027 243.959708 
L 196.832508 244.042744 
L 197.020057 243.924941 
L 203.080205 238.332754 
L 204.70956 236.820292 
L 205.178432 236.404631 
L 206.116176 235.534655 
L 207.429018 234.309582 
L 207.991664 233.795239 
L 212.586611 229.549713 
L 213.711904 228.529679 
L 214.743423 227.57223 
L 215.212295 227.156139 
L 216.243813 226.202317 
L 216.790346 225.703369 
L 217.61583 224.953109 
L 219.258036 223.452588 
L 219.99479 222.7821 
L 221.307632 221.572173 
L 221.851369 221.076763 
L 222.714249 220.29013 
L 227.871842 215.573634 
L 228.528263 215.006881 
L 228.997135 214.560759 
L 229.466007 214.152684 
L 230.685074 213.046264 
L 231.358762 212.448767 
L 232.279239 211.636227 
L 232.93566 211.032198 
L 233.464835 210.448072 
L 232.905429 209.322681 
L 231.047215 205.696422 
L 230.656335 204.946162 
L 228.801092 201.444946 
L 228.340714 200.601399 
L 227.496374 199.069121 
L 227.027872 198.216031 
L 226.277676 196.849909 
L 225.047303 194.692602 
L 224.556334 193.817298 
L 223.258582 191.566516 
L 220.894419 187.565127 
L 219.713467 185.733198 
L 219.619693 185.838169 
L 210.992446 198.632756 
L 198.767503 214.949635 
L 190.92472 224.461177 
L 189.937611 225.578326 
L 184.419579 231.95554 
L 184.923157 232.474697 
L 185.954676 233.534884 
L 191.393592 238.995925 
L 192.017763 239.583189 
L 192.425111 239.968179 
L 194.903921 242.334144 
L 195.613441 243.017033 
L 196.115525 243.459535 
L 196.665027 243.959708 
L 196.665027 243.959708 
M 65.305944 233.956235 
L 65.454545 234.065954 
L 65.605908 233.581105 
L 65.945466 232.33067 
L 68.420399 222.327197 
L 68.73665 220.759391 
L 68.867626 220.201459 
L 69.971498 212.073637 
L 69.981413 210.573116 
L 69.630971 208.447378 
L 69.205522 207.88444 
L 68.080229 207.665222 
L 65.735869 208.177267 
L 65.54832 208.2449 
L 64.798125 208.512299 
L 63.485283 209.108295 
L 63.016411 209.342903 
L 62.453764 209.629148 
L 61.047148 210.584993 
L 60.578276 210.964962 
L 60.109403 211.378069 
L 58.793049 213.073984 
L 58.185272 214.449462 
L 57.880414 217.075373 
L 58.009973 218.700938 
L 58.178213 219.576242 
L 58.479677 220.826676 
L 58.726408 221.576936 
L 58.98411 222.362275 
L 59.78515 224.452935 
L 60.1442 225.203196 
L 63.485283 231.223203 
L 64.235478 232.394971 
L 65.305944 233.956235 
L 65.305944 233.956235 
M 294.490677 233.956235 
L 294.639229 234.031913 
L 296.456505 231.330323 
L 297.358687 229.878839 
L 297.827559 229.059927 
L 298.925446 227.078847 
L 299.796822 225.312781 
L 300.412465 223.952761 
L 300.828341 222.895547 
L 300.986002 222.45224 
L 301.821605 219.576242 
L 302.105479 216.075026 
L 301.953634 215.053259 
L 301.533405 213.699201 
L 300.192664 211.698506 
L 299.682981 211.198333 
L 298.940944 210.573116 
L 298.202657 210.027839 
L 297.411285 209.572768 
L 297.077364 209.375192 
L 296.233394 208.975595 
L 295.201875 208.512299 
L 294.357906 208.224758 
L 293.138838 207.863164 
L 291.544673 207.703205 
L 290.888252 207.858789 
L 290.606929 208.042001 
L 290.325606 208.600718 
L 290.184762 209.072595 
L 290.013268 211.82355 
L 290.28648 215.199722 
L 292.350271 225.703369 
L 292.513141 226.328586 
L 292.720175 227.20389 
L 292.961047 228.079194 
L 293.482435 230.204932 
L 293.633185 230.705106 
L 293.849174 231.58041 
L 294.021995 232.205627 
L 294.490677 233.956235 
L 294.490677 233.956235 
M 179.827359 227.078847 
L 180.046887 227.19514 
L 180.499326 226.703717 
L 182.01615 225.03397 
L 184.002679 222.827371 
L 184.923157 221.775522 
L 186.842366 219.576242 
L 189.387627 216.5752 
L 196.989797 207.196943 
L 203.430091 198.693991 
L 209.889836 189.565821 
L 211.179995 187.665116 
L 213.827081 183.688781 
L 214.804064 182.18826 
L 216.150039 179.931458 
L 215.53199 178.937131 
L 214.555874 177.430589 
L 213.827081 176.311219 
L 212.745101 174.685655 
L 202.694427 160.305662 
L 196.269862 151.87365 
L 187.361292 141.01708 
L 186.502135 140.048628 
L 182.757097 135.797152 
L 180.046887 132.805499 
L 179.859338 132.879149 
L 179.015369 133.830747 
L 166.73092 148.11557 
L 163.073717 152.720558 
L 156.026399 162.05627 
L 148.40103 172.935047 
L 146.475645 175.859283 
L 144.949559 178.18687 
L 144.225059 179.341206 
L 143.849961 180.07113 
L 144.506382 181.11526 
L 146.421109 184.063911 
L 148.257359 186.83489 
L 149.165595 188.190344 
L 150.719256 190.441125 
L 157.82235 200.393986 
L 162.135973 206.086163 
L 164.490223 209.072595 
L 169.356989 215.074679 
L 178.82782 225.966916 
L 179.827359 227.078847 
L 179.827359 227.078847 
M 121.805578 206.321639 
L 121.906747 206.407654 
L 122.05657 206.321639 
L 123.407137 203.645979 
L 123.896753 202.69538 
L 124.438656 201.638096 
L 124.948101 200.694686 
L 125.3764 199.865872 
L 125.659161 199.319208 
L 130.065121 191.268471 
L 130.82363 189.940952 
L 132.409482 187.162928 
L 134.101936 184.313998 
L 136.160458 180.899912 
L 136.682119 179.937478 
L 135.12894 177.408949 
L 134.33512 176.061132 
L 133.429634 174.560611 
L 132.763274 173.435221 
L 129.877572 168.399221 
L 128.715578 166.307746 
L 127.812005 164.682181 
L 127.345663 163.831936 
L 126.580795 162.4314 
L 126.190297 161.681139 
L 124.53243 158.545194 
L 123.969784 157.467697 
L 123.123284 155.804099 
L 122.697161 154.928795 
L 122.361425 154.303578 
L 122.000521 153.605317 
L 121.806517 153.678361 
L 121.156551 154.234913 
L 120.50013 154.830864 
L 119.843709 155.385077 
L 119.374837 155.821931 
L 118.905965 156.222885 
L 117.395481 157.554706 
L 116.685642 158.179924 
L 115.530086 159.201426 
L 115.061214 159.597277 
L 113.088439 161.306009 
L 112.43553 161.857975 
L 111.497786 162.681977 
L 110.841365 163.23371 
L 109.997395 163.963575 
L 109.291225 164.557138 
L 105.589997 167.689346 
L 105.027351 168.132743 
L 104.652253 168.466595 
L 103.995832 168.992515 
L 103.335899 169.558875 
L 102.68299 170.098221 
L 90.232765 180.062522 
L 90.961188 180.632522 
L 91.714554 181.187912 
L 93.211774 182.340964 
L 93.99807 182.93852 
L 94.524616 183.371744 
L 94.949583 183.688781 
L 95.368586 184.020309 
L 99.351412 187.189997 
L 99.869758 187.626408 
L 100.432404 188.059212 
L 101.088825 188.615081 
L 101.512315 188.940604 
L 101.932795 189.278471 
L 107.277937 193.75158 
L 107.815632 194.192428 
L 108.121907 194.452375 
L 111.924368 197.693644 
L 112.364851 198.068774 
L 113.2795 198.879156 
L 113.805557 199.319208 
L 114.217244 199.666284 
L 115.436312 200.743214 
L 115.905184 201.144555 
L 117.536776 202.570337 
L 118.15577 203.13141 
L 118.672305 203.570684 
L 119.187288 204.025424 
L 121.805578 206.321639 
L 121.805578 206.321639 
M 237.94343 206.321639 
L 238.093253 206.407654 
L 240.250065 204.522673 
L 241.187809 203.683851 
L 241.656681 203.27989 
L 243.907268 201.293877 
L 244.449933 200.819729 
L 245.220109 200.156726 
L 253.651263 192.941994 
L 254.128679 192.543162 
L 254.597551 192.157613 
L 255.441521 191.473368 
L 255.816619 191.149705 
L 258.348528 189.044599 
L 258.791352 188.690518 
L 259.567596 188.058548 
L 260.130242 187.626026 
L 260.692889 187.152157 
L 262.005731 186.10661 
L 262.380828 185.782576 
L 262.943475 185.362874 
L 263.318573 185.04218 
L 263.771709 184.689128 
L 264.443866 184.15907 
L 265.006512 183.740454 
L 265.38161 183.419327 
L 265.838492 183.063564 
L 266.319354 182.68508 
L 267.069549 182.129724 
L 267.632196 181.681998 
L 268.194842 181.265821 
L 269.602896 180.187565 
L 269.766588 180.062522 
L 269.695233 179.867088 
L 268.943226 179.312261 
L 267.444647 178.15747 
L 266.643413 177.561653 
L 266.22558 177.231905 
L 263.61823 175.185828 
L 263.29582 174.935742 
L 262.568377 174.355906 
L 260.647587 172.810003 
L 260.130242 172.37436 
L 259.567596 171.94149 
L 259.004949 171.477751 
L 254.559489 167.808267 
L 254.034905 167.361563 
L 253.064268 166.557833 
L 252.44074 166.010239 
L 251.883589 165.557485 
L 251.502996 165.227789 
L 248.36341 162.556443 
L 247.845793 162.104163 
L 245.613195 160.180618 
L 245.313884 159.923203 
L 240.75906 155.929142 
L 240.324452 155.554012 
L 239.312321 154.64763 
L 238.621617 154.053491 
L 238.093253 153.592346 
L 237.94343 153.678361 
L 236.405314 156.725041 
L 235.910747 157.67975 
L 235.459256 158.555054 
L 233.77963 161.734921 
L 233.267828 162.681487 
L 232.841886 163.481662 
L 232.239021 164.557138 
L 231.760732 165.432442 
L 230.778849 167.233274 
L 230.09616 168.433484 
L 229.559781 169.38173 
L 229.110348 170.184092 
L 228.021018 172.059743 
L 227.496744 172.985713 
L 226.630091 174.435568 
L 225.996353 175.509227 
L 225.527481 176.314866 
L 223.370669 180.142073 
L 225.530011 183.688781 
L 226.090128 184.642572 
L 227.965986 187.815214 
L 228.462877 188.690518 
L 230.606929 192.44182 
L 231.207502 193.567211 
L 231.638448 194.317471 
L 232.239021 195.442862 
L 232.669966 196.193123 
L 233.267828 197.318513 
L 233.685856 198.085615 
L 234.273927 199.194165 
L 237.94343 206.321639 
L 237.94343 206.321639 
M 56.826257 189.190691 
L 57.108622 189.230718 
L 58.609013 189.233334 
L 61.984892 188.584458 
L 62.266215 188.506617 
L 64.516801 187.743321 
L 64.985673 187.531057 
L 65.54832 187.30698 
L 67.142485 186.627179 
L 67.798906 186.287098 
L 68.455327 185.998888 
L 69.018364 185.689476 
L 70.893462 184.698988 
L 71.127297 184.564085 
L 72.76895 183.644506 
L 73.61292 183.139819 
L 76.332378 181.481271 
L 76.613701 181.277256 
L 77.082574 180.993759 
L 77.551446 180.662333 
L 78.020318 180.379749 
L 78.478187 179.937478 
L 77.832769 179.497485 
L 77.327258 179.187218 
L 76.895025 178.884466 
L 76.369497 178.562001 
L 76.051055 178.353037 
L 71.92498 175.862795 
L 71.352808 175.560959 
L 70.799687 175.240204 
L 70.217873 174.935742 
L 69.674394 174.626735 
L 69.111748 174.35438 
L 63.766606 171.988529 
L 63.203959 171.798571 
L 62.641313 171.611823 
L 61.984892 171.416603 
L 61.328471 171.239942 
L 60.390727 171.025132 
L 59.077885 170.843085 
L 57.202396 170.76303 
L 55.983329 170.963586 
L 55.233134 171.205177 
L 54.576713 171.504539 
L 53.010619 173.185134 
L 52.600055 174.060438 
L 52.188786 175.435915 
L 51.793859 179.062174 
L 51.808359 181.563043 
L 51.978872 183.313651 
L 52.188786 184.564085 
L 52.523433 185.689476 
L 52.794999 186.38606 
L 53.45142 187.49812 
L 54.014066 188.083223 
L 55.139359 188.768162 
L 56.826257 189.190691 
L 56.826257 189.190691 
M 301.193019 189.190691 
L 301.67231 189.245261 
L 303.173743 189.190691 
L 304.954415 188.742191 
L 306.642355 187.372218 
L 307.136922 186.564779 
L 307.921301 183.938868 
L 308.217295 180.312609 
L 308.124586 177.686697 
L 307.850785 175.686002 
L 307.534968 174.435568 
L 306.454806 172.378059 
L 305.423287 171.504539 
L 303.078927 170.789285 
L 301.766085 170.752495 
L 300.359469 170.884218 
L 295.483199 172.257165 
L 295.014327 172.468943 
L 294.45168 172.693663 
L 293.045064 173.302849 
L 292.857515 173.373189 
L 292.201094 173.712902 
L 291.544673 174.001518 
L 290.982027 174.311015 
L 289.327409 175.185828 
L 288.543892 175.608648 
L 287.606147 176.118111 
L 287.043501 176.474088 
L 286.574629 176.741003 
L 285.824433 177.213791 
L 285.355561 177.483596 
L 284.042719 178.276888 
L 283.761396 178.476405 
L 283.104975 178.883981 
L 282.671973 179.187218 
L 281.520313 180.062522 
L 281.604585 180.133464 
L 282.261005 180.54033 
L 283.104975 181.116499 
L 283.630001 181.437999 
L 283.948945 181.647146 
L 287.606147 183.88219 
L 288.192385 184.188954 
L 288.73144 184.505227 
L 289.294087 184.791308 
L 290.138057 185.265654 
L 290.982027 185.68996 
L 291.638448 186.023998 
L 295.858296 187.882354 
L 296.428757 188.0653 
L 296.889815 188.249669 
L 298.015108 188.584458 
L 298.671529 188.760627 
L 299.519964 188.940604 
L 299.984371 189.02481 
L 301.193019 189.190691 
L 301.193019 189.190691 
M 140.163251 174.185481 
L 140.286533 174.266802 
L 140.700003 173.685307 
L 141.599375 172.269743 
L 143.982107 168.683571 
L 145.069028 167.040678 
L 152.477208 156.521014 
L 158.866498 148.051407 
L 161.385778 144.857092 
L 163.545076 142.174366 
L 165.04298 140.351865 
L 166.543371 138.539158 
L 167.949987 136.878957 
L 170.062117 134.421674 
L 175.579983 128.04446 
L 175.076843 127.527445 
L 173.99984 126.418895 
L 173.201355 125.594159 
L 163.823912 116.472706 
L 163.073717 115.972532 
L 162.323522 116.685609 
L 161.795259 117.165683 
L 160.16671 118.67685 
L 159.697838 119.093278 
L 158.666319 120.062416 
L 158.103673 120.577215 
L 147.303834 130.545328 
L 146.492342 131.295589 
L 145.666494 132.045849 
L 144.02488 133.54637 
L 143.287314 134.216858 
L 141.974473 135.428144 
L 141.5056 135.844296 
L 140.474082 136.797992 
L 139.817661 137.376438 
L 139.348789 137.827245 
L 138.504819 138.591171 
L 136.910654 140.058018 
L 136.441782 140.472352 
L 135.410263 141.428869 
L 134.941391 141.845548 
L 133.628549 143.058421 
L 133.159677 143.473394 
L 132.128158 144.425638 
L 131.471737 144.993551 
L 131.002865 145.439241 
L 130.533993 145.847316 
L 129.314926 146.953736 
L 128.56473 147.608517 
L 127.811023 148.301494 
L 127.158114 148.867791 
L 126.595468 149.692708 
L 127.208322 150.927405 
L 127.626986 151.732219 
L 129.730887 155.804099 
L 130.346444 156.957151 
L 131.126409 158.43001 
L 140.163251 174.185481 
L 140.163251 174.185481 
M 219.636051 174.185481 
L 219.807241 174.224137 
L 220.369888 173.294333 
L 222.455608 169.808961 
L 223.089346 168.735303 
L 223.558218 167.916338 
L 225.851735 163.931921 
L 226.559 162.641542 
L 227.367554 161.180966 
L 233.415489 149.676971 
L 233.445106 149.426884 
L 233.123209 149.120421 
L 232.61175 148.676624 
L 231.997916 148.111927 
L 231.247721 147.457994 
L 229.74733 146.09907 
L 227.329269 143.924974 
L 226.912428 143.549844 
L 225.808804 142.530513 
L 224.730937 141.549149 
L 224.120865 140.981216 
L 223.081131 140.048628 
L 220.83876 137.980482 
L 219.944107 137.172629 
L 219.432144 136.709418 
L 217.181558 134.635985 
L 216.515779 134.046544 
L 214.274551 131.979024 
L 213.379164 131.170545 
L 212.867934 130.707334 
L 210.521929 128.544634 
L 206.303725 124.628941 
L 205.790378 124.168114 
L 205.178432 123.595369 
L 203.678041 122.214336 
L 200.239646 119.041334 
L 199.82346 118.666204 
L 197.770253 116.749197 
L 197.258737 116.290379 
L 196.926283 115.97284 
L 196.665479 116.040292 
L 195.707215 116.921043 
L 195.238343 117.34116 
L 194.11305 118.431113 
L 193.592826 118.91629 
L 184.669457 127.794373 
L 184.399132 128.169503 
L 185.110706 128.981795 
L 186.754967 130.795415 
L 187.764194 131.920806 
L 190.174525 134.691784 
L 191.206043 135.87775 
L 201.631652 148.676624 
L 206.116176 154.617923 
L 213.149258 164.450017 
L 214.414207 166.307746 
L 216.056265 168.7356 
L 219.552355 174.060438 
L 219.636051 174.185481 
L 219.636051 174.185481 
M 67.912906 152.302883 
L 68.400024 152.302883 
L 69.205522 152.11592 
L 69.630971 151.552622 
L 69.929228 149.927058 
L 69.960233 147.80132 
L 69.29277 142.174366 
L 68.479848 137.92289 
L 68.361552 137.418826 
L 65.781826 127.044113 
L 65.528309 126.168809 
L 65.454545 125.934847 
L 65.266997 126.100893 
L 63.672831 128.476933 
L 62.682113 130.045155 
L 59.68541 135.797152 
L 59.359208 136.635701 
L 59.19678 137.047586 
L 58.750322 138.29802 
L 58.421464 139.457682 
L 58.266228 140.048628 
L 57.883251 142.799583 
L 57.956144 144.425148 
L 58.272723 145.800625 
L 59.107361 147.42619 
L 60.109403 148.622219 
L 61.703569 149.890634 
L 63.110185 150.733695 
L 63.766606 151.024405 
L 64.798125 151.488092 
L 65.54832 151.755311 
L 66.49609 152.052796 
L 66.861162 152.137179 
L 67.912906 152.302883 
L 67.912906 152.302883 
M 291.599976 152.302883 
L 292.10732 152.300233 
L 293.701485 152.003658 
L 294.545455 151.733599 
L 295.108101 151.507379 
L 295.60198 151.302536 
L 298.202657 149.972753 
L 298.604711 149.676971 
L 299.553808 148.926711 
L 300.413542 148.051407 
L 301.143932 147.051059 
L 301.884381 145.300452 
L 302.105479 143.924974 
L 302.0668 141.924279 
L 301.951119 141.174019 
L 301.411731 138.798194 
L 301.273276 138.423064 
L 301.01589 137.638625 
L 300.265694 135.711628 
L 297.892807 131.045502 
L 294.639229 125.968087 
L 294.545455 125.933934 
L 294.39393 126.418895 
L 294.0539 127.66933 
L 291.481372 138.172977 
L 290.178425 145.800625 
L 290.070486 149.927058 
L 290.231831 151.054614 
L 290.513154 151.829477 
L 290.794478 152.11592 
L 291.599976 152.302883 
L 291.599976 152.302883 
M 123.470392 143.299757 
L 123.594686 143.357429 
L 124.063558 142.910881 
L 124.53243 142.502805 
L 125.751498 141.39652 
L 126.425907 140.798889 
L 127.345663 139.986709 
L 128.002084 139.382513 
L 130.162408 137.422716 
L 130.815316 136.846028 
L 131.284189 136.394042 
L 132.034384 135.731028 
L 132.631707 135.171935 
L 134.753842 133.239904 
L 135.504038 132.534758 
L 135.97291 132.121204 
L 137.004428 131.163755 
L 137.4733 130.747664 
L 138.504819 129.793842 
L 139.050872 129.294894 
L 139.741875 128.669677 
L 140.661631 127.844507 
L 141.130503 127.391998 
L 141.880698 126.729104 
L 142.480091 126.168809 
L 144.693931 124.131741 
L 148.726231 120.402477 
L 149.195103 119.98803 
L 150.078203 119.166377 
L 153.508726 115.997023 
L 155.102891 114.515716 
L 155.665538 114.002045 
L 158.187364 111.413685 
L 156.603282 110.000254 
L 156.030906 109.538034 
L 154.540245 108.269677 
L 153.074137 107.037166 
L 152.664756 106.697319 
L 151.164366 105.467393 
L 150.459891 104.911428 
L 150.039073 104.574137 
L 147.413389 102.474703 
L 146.983777 102.160472 
L 146.65292 101.910386 
L 145.631675 101.101616 
L 145.199185 100.784995 
L 144.867467 100.534908 
L 144.03751 99.899831 
L 138.598593 95.959201 
L 137.614214 95.283084 
L 137.191977 94.970234 
L 136.714174 94.657867 
L 135.879135 94.07489 
L 131.835082 91.406738 
L 131.190414 90.980441 
L 130.627768 90.643018 
L 127.158114 88.479573 
L 126.568359 88.15561 
L 126.126595 87.882499 
L 115.998958 82.329097 
L 115.38733 82.028482 
L 115.061214 81.841039 
L 114.404793 81.543642 
L 113.842146 81.32023 
L 113.64341 81.403265 
L 112.388391 82.278569 
L 109.528523 84.310332 
L 109.040957 84.654394 
L 107.665628 85.654741 
L 107.090388 86.073075 
L 104.558479 87.951857 
L 104.387245 88.15561 
L 104.506113 88.90587 
L 105.296045 92.407086 
L 105.350083 92.657173 
L 107.142894 99.784647 
L 107.371711 100.545824 
L 109.032268 106.286905 
L 109.165768 106.662035 
L 109.494255 107.787426 
L 109.658061 108.2876 
L 110.184944 109.946425 
L 112.810628 117.626931 
L 113.219226 118.791247 
L 113.716392 120.166725 
L 113.87173 120.541855 
L 114.283635 121.667246 
L 114.436191 122.042376 
L 114.946695 123.417853 
L 115.094594 123.792984 
L 115.811409 125.600861 
L 121.564806 139.173324 
L 122.675544 141.549149 
L 123.03204 142.332159 
L 123.470392 143.299757 
L 123.470392 143.299757 
M 236.357888 143.299757 
L 236.499088 143.339784 
L 236.691152 142.924627 
L 240.274587 135.046891 
L 240.812712 133.792198 
L 241.613951 131.920806 
L 242.031779 130.89681 
L 242.557065 129.670024 
L 243.625944 127.005231 
L 243.912763 126.293852 
L 245.242158 122.91768 
L 245.970305 120.961295 
L 246.12827 120.541855 
L 248.375237 114.289684 
L 249.533733 110.787737 
L 249.960981 109.538034 
L 250.190154 108.756016 
L 250.426598 108.037513 
L 250.659026 107.237632 
L 250.808138 106.787079 
L 251.127898 105.721579 
L 251.27425 105.286558 
L 251.563881 104.28621 
L 252.44074 101.201806 
L 252.575783 100.784995 
L 252.876602 99.659604 
L 253.472258 97.362926 
L 253.627202 96.783605 
L 254.703127 92.407086 
L 255.120429 90.656478 
L 255.352262 89.531087 
L 255.593046 88.405696 
L 255.532804 88.030566 
L 254.316228 87.095536 
L 253.847356 86.758089 
L 252.333792 85.654741 
L 251.59677 85.094446 
L 251.127898 84.778953 
L 249.721282 83.757047 
L 247.790894 82.403612 
L 247.470695 82.185026 
L 246.251628 81.326258 
L 245.87653 81.408002 
L 244.37614 82.14244 
L 244.124161 82.278569 
L 243.344621 82.681294 
L 242.781974 82.953379 
L 241.433268 83.654047 
L 230.5913 89.87273 
L 230.309977 90.066801 
L 229.841104 90.339883 
L 229.278458 90.702477 
L 228.164918 91.406738 
L 227.590518 91.787957 
L 226.934097 92.207767 
L 225.808804 92.954677 
L 221.870279 95.627968 
L 221.588955 95.831114 
L 218.681948 97.910935 
L 217.931753 98.453516 
L 212.77416 102.337669 
L 212.023965 102.932812 
L 211.562137 103.285863 
L 211.08622 103.671015 
L 210.523574 104.101045 
L 209.960927 104.573963 
L 208.835634 105.467393 
L 208.143889 106.036818 
L 206.116176 107.713304 
L 205.272206 108.440097 
L 204.803334 108.828291 
L 201.802553 111.6597 
L 202.481219 112.288989 
L 203.584267 113.324363 
L 204.243548 113.914554 
L 208.179213 117.560836 
L 209.248162 118.54116 
L 209.960927 119.215984 
L 210.466632 119.666551 
L 211.179995 120.341374 
L 211.6857 120.791942 
L 212.399062 121.467293 
L 212.904767 121.917332 
L 213.61813 122.593204 
L 214.123602 123.042723 
L 214.837197 123.718594 
L 215.342076 124.168114 
L 216.056265 124.843985 
L 216.565123 125.293505 
L 217.181558 125.865615 
L 218.619432 127.169156 
L 219.338369 127.845027 
L 219.847489 128.294547 
L 220.463662 128.866386 
L 221.901732 130.170198 
L 222.620474 130.845549 
L 223.130475 131.295589 
L 223.745767 131.867155 
L 225.152383 133.138689 
L 226.746549 134.613543 
L 227.64224 135.422022 
L 228.153165 135.884643 
L 230.685074 138.217478 
L 231.205364 138.67315 
L 231.632236 139.048281 
L 233.592081 140.822875 
L 234.55366 141.674192 
L 235.561344 142.59963 
L 236.078864 143.04967 
L 236.357888 143.299757 
L 236.357888 143.299757 
M 179.858975 123.29281 
L 180.046887 123.378149 
L 181.265955 122.131201 
L 184.266736 119.038668 
L 184.829383 118.493082 
L 186.04845 117.27042 
L 186.704871 116.627234 
L 188.580359 114.773709 
L 189.099409 114.289684 
L 191.956239 111.406357 
L 187.316517 107.162209 
L 186.704871 106.593371 
L 185.537555 105.536645 
L 184.923157 104.96572 
L 183.759096 103.91108 
L 183.047669 103.246516 
L 182.529833 102.785689 
L 182.01615 102.321299 
L 180.046887 100.516985 
L 179.859338 100.591585 
L 179.109143 101.29711 
L 178.640271 101.710234 
L 177.608752 102.668097 
L 177.13988 103.08376 
L 176.108362 104.038789 
L 175.562888 104.536297 
L 174.872763 105.161514 
L 174.058609 105.911775 
L 173.366855 106.536992 
L 172.357385 107.457784 
L 171.044543 108.669521 
L 170.575671 109.085381 
L 169.544152 110.039434 
L 168.887731 110.61773 
L 168.418859 111.068413 
L 168.037306 111.413685 
L 168.043761 111.576682 
L 168.670195 112.163946 
L 169.07528 112.543759 
L 173.331533 116.665509 
L 174.232873 117.56758 
L 175.076843 118.388603 
L 176.858557 120.219875 
L 177.550515 120.916985 
L 178.546496 121.953846 
L 179.134439 122.542549 
L 179.858975 123.29281 
L 179.858975 123.29281 
M 67.623764 112.789163 
L 67.705132 112.906102 
L 68.045108 112.539076 
L 70.799687 109.412494 
L 71.612756 108.537687 
L 73.61292 106.403799 
L 74.223563 105.786732 
L 79.2439 100.784995 
L 79.802032 100.249721 
L 82.333941 97.87585 
L 85.608895 94.907954 
L 86.185148 94.40778 
L 86.835113 93.853035 
L 87.621451 93.157346 
L 98.042913 84.52935 
L 96.400104 74.204576 
L 95.743683 73.999846 
L 94.337067 73.569304 
L 92.950503 73.150399 
L 92.649127 73.067037 
L 91.054962 72.616738 
L 88.429278 71.940626 
L 86.104809 71.399792 
L 85.803595 71.321526 
L 84.772076 71.091196 
L 82.420571 70.649531 
L 81.958843 70.564474 
L 72.956499 69.341425 
L 67.798906 69.070541 
L 64.235478 69.125024 
L 62.547538 69.711103 
L 61.292078 71.024661 
L 60.698531 72.525182 
L 60.335949 74.400834 
L 60.250712 79.02744 
L 60.453001 81.528308 
L 60.616348 82.903786 
L 60.871942 84.654394 
L 61.473413 88.280653 
L 61.831418 90.031261 
L 62.062136 91.156652 
L 62.134069 91.531782 
L 62.301604 92.282042 
L 62.557738 93.407433 
L 63.066307 95.658215 
L 63.297734 96.576242 
L 64.643322 101.910386 
L 64.934858 103.035776 
L 65.484194 105.036471 
L 65.704368 105.911775 
L 65.855714 106.411949 
L 66.072215 107.287253 
L 66.245109 107.91247 
L 67.623764 112.789163 
L 67.623764 112.789163 
M 292.163232 112.789163 
L 292.294868 112.906146 
L 292.451024 112.539076 
L 297.611931 92.657173 
L 298.918226 86.029871 
L 299.163084 84.52935 
L 299.464655 82.278569 
L 299.789347 76.651615 
L 299.557777 73.650573 
L 299.046627 71.747397 
L 298.577755 70.824939 
L 298.108883 70.224267 
L 296.514717 69.313668 
L 294.920552 69.0532 
L 291.075801 69.091764 
L 286.762178 69.377054 
L 286.011982 69.449153 
L 284.324043 69.623326 
L 283.667622 69.701438 
L 282.167231 69.912872 
L 276.259443 70.897702 
L 275.978119 70.94744 
L 275.040375 71.152355 
L 265.815577 73.52553 
L 264.443866 73.947437 
L 263.599896 74.204576 
L 263.458782 74.525877 
L 263.209017 76.526572 
L 262.971868 78.402223 
L 262.005731 84.322962 
L 262.005731 84.602751 
L 262.380828 84.929411 
L 263.478125 85.779785 
L 263.797439 86.029871 
L 265.100287 87.094742 
L 265.668577 87.530392 
L 267.538421 89.083086 
L 268.007294 89.468444 
L 268.558984 89.906217 
L 268.867098 90.156304 
L 270.070331 91.194605 
L 270.638432 91.656825 
L 272.977338 93.691783 
L 273.669716 94.282737 
L 274.29018 94.842637 
L 274.800729 95.283084 
L 275.415473 95.849444 
L 276.259443 96.605456 
L 277.42594 97.658909 
L 278.041157 98.235907 
L 280.573066 100.616055 
L 285.776144 105.786732 
L 286.574629 106.612355 
L 288.964795 109.162904 
L 290.138057 110.477884 
L 291.825996 112.382196 
L 292.163232 112.789163 
L 292.163232 112.789163 
M 163.140401 107.037166 
L 163.261266 106.993091 
L 164.574108 105.776085 
L 165.04298 105.362156 
L 166.074499 104.405131 
L 166.543371 103.989207 
L 167.574889 103.035283 
L 168.23131 102.457412 
L 168.700182 102.006031 
L 169.544152 101.242105 
L 171.138317 99.775258 
L 171.607189 99.360685 
L 172.638708 98.405098 
L 173.10758 97.987349 
L 174.420422 96.774855 
L 174.889294 96.359881 
L 175.076843 96.027324 
L 153.508726 77.106094 
L 152.94608 76.6483 
L 149.288877 73.586741 
L 148.726231 73.124542 
L 147.832436 72.400139 
L 147.413389 72.062848 
L 143.756187 69.087729 
L 143.19354 68.670403 
L 142.34957 67.982264 
L 141.744714 67.523446 
L 141.224277 67.095651 
L 140.792254 66.773185 
L 140.467136 66.523098 
L 139.536338 65.805046 
L 139.255014 65.821529 
L 138.223496 66.351202 
L 137.848398 66.568085 
L 137.098203 66.958749 
L 136.535556 67.284563 
L 135.691586 67.714207 
L 135.12894 68.051342 
L 134.566293 68.340241 
L 134.191196 68.566937 
L 133.603091 68.898923 
L 126.783016 72.863073 
L 126.501693 73.054552 
L 126.032821 73.325971 
L 123.876009 74.677266 
L 123.407137 74.951775 
L 120.687679 76.693667 
L 120.562365 76.776659 
L 120.593905 76.939656 
L 121.625423 77.478796 
L 122.413724 77.902049 
L 122.750716 78.100636 
L 123.324569 78.402223 
L 123.876009 78.722136 
L 124.438656 79.010427 
L 125.282626 79.483373 
L 126.443326 80.152831 
L 126.783016 80.358286 
L 128.787166 81.528308 
L 129.127377 81.734121 
L 130.652309 82.653699 
L 131.09664 82.953392 
L 131.659286 83.288776 
L 133.534775 84.471133 
L 134.056481 84.779437 
L 134.378744 84.989695 
L 142.364733 90.406391 
L 143.099766 90.953418 
L 143.576623 91.281695 
L 144.693931 92.11088 
L 146.637335 93.532477 
L 146.944517 93.751933 
L 149.101328 95.420413 
L 152.440198 98.03404 
L 152.852305 98.366524 
L 157.762751 102.410559 
L 158.384996 102.953376 
L 158.953726 103.410907 
L 161.573326 105.715318 
L 162.097374 106.161862 
L 162.531516 106.536992 
L 163.140401 107.037166 
L 163.140401 107.037166 
M 196.814647 107.037166 
L 196.926283 107.01114 
L 197.468484 106.536992 
L 198.332899 105.771814 
L 198.801771 105.36933 
L 200.489711 103.880016 
L 201.146132 103.347894 
L 201.708778 102.863069 
L 202.834071 101.900996 
L 203.396718 101.449559 
L 203.771816 101.118444 
L 205.55353 99.64306 
L 206.002605 99.284474 
L 206.678823 98.743579 
L 213.899453 93.13075 
L 214.368325 92.8012 
L 214.649648 92.600793 
L 215.306069 92.110301 
L 216.994009 90.866399 
L 218.175518 90.031261 
L 219.432144 89.152603 
L 220.147502 88.655783 
L 221.225045 87.905523 
L 223.089346 86.668548 
L 223.370669 86.483202 
L 233.873405 79.977964 
L 239.43679 76.776659 
L 239.406095 76.739419 
L 238.651544 76.276485 
L 237.81193 75.718639 
L 237.28452 75.401181 
L 236.96796 75.195205 
L 230.743752 71.399792 
L 230.403751 71.193783 
L 228.377628 70.024314 
L 228.05939 69.826737 
L 227.496744 69.503097 
L 221.026309 65.957725 
L 220.369888 65.847747 
L 219.99479 66.162227 
L 219.432144 66.582281 
L 218.869497 67.047467 
L 218.418789 67.398402 
L 217.744204 67.929934 
L 217.181558 68.349143 
L 216.80646 68.669781 
L 216.351504 69.023967 
L 215.681167 69.558682 
L 214.951879 70.149357 
L 214.180413 70.774575 
L 213.430581 71.362552 
L 213.055483 71.684999 
L 212.32696 72.275096 
L 211.555092 72.907764 
L 210.992446 73.35088 
L 210.617348 73.684112 
L 209.901558 74.27579 
L 208.547856 75.401181 
L 207.804116 76.011788 
L 207.488993 76.276485 
L 205.576773 77.902049 
L 204.803334 78.55951 
L 204.053139 79.191838 
L 195.732379 86.405002 
L 194.863246 87.173645 
L 194.394374 87.574642 
L 192.987757 88.817029 
L 189.799427 91.643366 
L 189.369576 92.031956 
L 186.986194 94.180504 
L 186.449564 94.657867 
L 185.471567 95.533171 
L 184.917661 96.033345 
L 184.923157 96.197735 
L 185.440677 96.658562 
L 185.954676 97.122953 
L 188.111487 99.106959 
L 189.548779 100.409865 
L 190.268299 101.086755 
L 190.776806 101.535255 
L 191.393592 102.107366 
L 192.831467 103.410907 
L 193.550404 104.086778 
L 194.059523 104.536297 
L 194.675697 105.108137 
L 196.113767 106.411949 
L 196.814647 107.037166 
L 196.814647 107.037166 
M 179.807241 91.531782 
L 179.953113 91.642641 
L 180.192133 91.531782 
L 183.70409 88.372707 
L 185.06596 87.155262 
L 190.268299 82.510273 
L 190.737171 82.109276 
L 192.245875 80.778048 
L 192.956699 80.152831 
L 194.11305 79.130184 
L 194.581922 78.730886 
L 195.707215 77.739805 
L 198.895546 74.987096 
L 203.115395 71.382603 
L 203.584267 70.989797 
L 204.70956 70.055392 
L 205.084657 69.73216 
L 207.44082 67.773532 
L 208.272988 67.093939 
L 209.116958 66.378157 
L 209.561196 66.022925 
L 210.336025 65.392971 
L 210.898672 64.959565 
L 211.461318 64.48514 
L 212.399062 63.729497 
L 213.837639 62.396666 
L 213.524355 62.227731 
L 212.513918 61.771448 
L 212.305288 61.679273 
L 209.867153 60.571071 
L 209.152075 60.270927 
L 208.835634 60.123841 
L 206.960146 59.326083 
L 206.487983 59.145537 
L 206.022402 58.94695 
L 205.542836 58.770406 
L 205.084657 58.57335 
L 204.598922 58.395276 
L 204.146913 58.199565 
L 203.584267 57.975043 
L 201.956202 57.394929 
L 201.521229 57.212213 
L 200.57531 56.894755 
L 200.114613 56.716082 
L 199.083095 56.376659 
L 198.14535 56.06446 
L 197.173169 55.769364 
L 196.832508 55.668536 
L 195.238343 55.182008 
L 187.923939 53.437804 
L 186.036989 53.143453 
L 185.485804 53.058919 
L 179.484241 52.680463 
L 176.764782 52.81083 
L 175.076843 52.975766 
L 168.325085 54.221424 
L 167.574889 54.426062 
L 166.637145 54.668666 
L 164.949206 55.11066 
L 164.574108 55.210271 
L 162.229747 55.942879 
L 161.385778 56.207138 
L 159.604064 56.82048 
L 158.720031 57.144842 
L 157.541026 57.56911 
L 156.689808 57.895102 
L 149.195103 60.983948 
L 148.876343 61.146231 
L 147.413389 61.807536 
L 146.944517 62.030238 
L 146.162361 62.396666 
L 146.100547 62.52773 
L 159.102917 73.275443 
L 159.416515 73.548554 
L 160.422483 74.400834 
L 160.729357 74.671963 
L 161.877005 75.651268 
L 162.792394 76.462428 
L 163.31729 76.901702 
L 163.757414 77.276832 
L 164.4839 77.902049 
L 167.481115 80.545884 
L 168.745867 81.653352 
L 169.262829 82.109485 
L 174.375641 86.655089 
L 174.889294 87.114364 
L 179.807241 91.531782 
L 179.807241 91.531782 
M 102.922367 80.653005 
L 103.058088 80.75397 
L 103.52696 80.424961 
L 103.808283 80.22179 
L 104.464704 79.729982 
L 105.589997 78.886983 
L 106.101471 78.527266 
L 106.652036 78.027093 
L 106.527742 77.953059 
L 105.769211 77.651962 
L 105.308674 77.455169 
L 104.818004 77.276832 
L 104.37093 77.082829 
L 103.867921 76.901702 
L 103.433186 76.710798 
L 102.870539 76.488618 
L 102.307893 76.345573 
L 102.289196 76.526572 
L 102.41359 77.276832 
L 102.922367 80.653005 
L 102.922367 80.653005 
M 256.795727 80.653005 
L 256.941912 80.754463 
L 257.077296 80.653005 
L 257.41628 78.402223 
L 257.568625 77.401876 
L 257.692107 76.346429 
L 257.504558 76.339128 
L 256.660589 76.692065 
L 256.132079 76.901702 
L 255.347747 77.20048 
L 254.547785 77.526919 
L 253.379668 78.152136 
L 254.7851 79.184379 
L 255.607543 79.777701 
L 255.910393 79.99571 
L 256.795727 80.653005 
L 256.795727 80.653005 
M 113.211144 73.275443 
L 113.467049 73.357638 
L 113.79778 73.150399 
L 115.342537 72.113791 
L 115.859338 71.774922 
L 117.593123 70.627669 
L 118.061995 70.344511 
L 118.812191 69.85516 
L 119.712993 69.274053 
L 120.781454 68.600625 
L 129.502475 63.349674 
L 130.909091 62.555972 
L 131.190414 62.375928 
L 131.753061 62.085715 
L 132.315707 61.746638 
L 132.878354 61.457599 
L 133.253451 61.094059 
L 132.624346 60.646058 
L 132.315707 60.427039 
L 131.09664 59.564045 
L 120.781454 52.951583 
L 120.218807 52.664528 
L 119.187288 52.073854 
L 118.564758 51.767975 
L 118.249544 51.584838 
L 117.686898 51.311849 
L 112.060432 48.94089 
L 111.404011 48.736686 
L 110.184944 48.428405 
L 108.121907 48.060395 
L 105.965095 48.039426 
L 104.558479 48.322843 
L 103.52696 48.827113 
L 102.260287 50.142411 
L 101.500177 51.893018 
L 101.040437 54.1438 
L 100.876755 58.645363 
L 101.158078 65.647794 
L 101.287445 67.273359 
L 101.463923 68.473737 
L 102.026569 68.676498 
L 112.43553 72.921356 
L 113.211144 73.275443 
L 113.211144 73.275443 
M 246.386413 73.275443 
L 246.532951 73.357638 
L 246.814275 73.259544 
L 247.752019 72.839793 
L 248.502214 72.490569 
L 249.003833 72.275096 
L 250.565251 71.603848 
L 251.221672 71.333668 
L 251.690544 71.109443 
L 252.173042 70.899618 
L 254.222454 70.099993 
L 255.253972 69.703753 
L 255.722844 69.492648 
L 256.287228 69.274053 
L 258.641653 68.273706 
L 258.756999 66.898229 
L 259.057315 61.396318 
L 259.064539 55.394234 
L 258.947568 54.018757 
L 258.230474 51.142758 
L 257.944589 50.517541 
L 257.12614 49.39215 
L 256.47304 48.827113 
L 255.865629 48.516846 
L 255.535296 48.359908 
L 254.597551 48.105202 
L 253.378484 47.975976 
L 252.346965 48.011989 
L 250.846575 48.195545 
L 249.627507 48.452323 
L 247.845793 48.959774 
L 247.189372 49.196717 
L 245.782756 49.727253 
L 245.407658 49.899734 
L 243.813493 50.576398 
L 243.063298 50.942727 
L 241.920795 51.517888 
L 238.093253 53.590476 
L 237.718156 53.822771 
L 236.96796 54.295189 
L 236.499088 54.565493 
L 235.341936 55.269191 
L 231.680632 57.645016 
L 226.746549 61.093567 
L 226.746549 61.202712 
L 227.309195 61.562058 
L 228.167771 62.021535 
L 228.715811 62.343372 
L 229.285983 62.646752 
L 230.028653 63.08839 
L 230.497525 63.349674 
L 231.672021 64.02223 
L 231.997916 64.222025 
L 232.752814 64.647447 
L 233.498307 65.101267 
L 234.839982 65.897881 
L 235.280021 66.179046 
L 236.499088 66.912838 
L 246.386413 73.275443 
L 246.386413 73.275443 
" clip-path="url(#p82a7eb4c2b)" style="fill: none; stroke: #000000; stroke-linejoin: miter"/>
   </g>
   <g id="patch_3">
    <path d="M 180 49.090909 
C 133.105975 49.090909 20.855677 140.963495 65.454545 155.454545 
C 91.133071 163.798004 38.454545 65.454545 65.454545 65.454545 
C 157.851148 65.454545 261.818182 210.33067 261.818182 302.727273 
C 261.818182 376.404534 49.090909 106.322739 49.090909 180 
L 49.090909 180 
C 49.090909 253.677261 261.818182 -16.404534 261.818182 57.272727 
C 261.818182 149.66933 157.851148 294.545455 65.454545 294.545455 
C 38.454545 294.545455 91.133071 196.201996 65.454545 204.545455 
C 20.855677 219.036505 133.105975 310.909091 180 310.909091 
L 180 310.909091 
C 226.894025 310.909091 339.144323 219.036505 294.545455 204.545455 
C 268.866929 196.201996 321.545455 294.545455 294.545455 294.545455 
C 202.148852 294.545455 98.181818 149.66933 98.181818 57.272727 
C 98.181818 -16.404534 310.909091 253.677261 310.909091 180 
L 310.909091 180 
C 310.909091 106.322739 98.181818 376.404534 98.181818 302.727273 
C 98.181818 210.33067 202.148852 65.454545 294.545455 65.454545 
C 321.545455 65.454545 268.866929 163.798004 294.545455 155.454545 
C 339.144323 140.963495 226.894025 49.090909 180 49.090909 
L 180 49.090909 
z
" clip-path="url(#p82a7eb4c2b)" style="fill: none; stroke-dasharray: 3.7,1.6; stroke-dashoffset: 0; stroke: #000000; stroke-linejoin: miter"/>
   </g>
  </g>
 </g>
 <defs>
  <clipPath id="p82a7eb4c2b">
   <rect x="0" y="0" width="360" height="360"/>
  </clipPath>
 </defs>
</svg>
